<?xml version="1.0" encoding="UTF-8"?>
<!DOCTYPE svg PUBLIC "-//W3C//DTD SVG 1.1//EN" "http://www.w3.org/Graphics/SVG/1.1/DTD/svg11.dtd">

<svg xmlns="http://www.w3.org/2000/svg" xmlns:xlink="http://www.w3.org/1999/xlink" width="254px" height="330px" viewbox="0 0 254 330" version="1.1">
  <title>TPSM53604_BUCK_RDA_A_bottom: null</title>
  <desc>TPSM53604_BUCK_RDA_A WebTHERM&amp;reg; Board Layout file</desc>
  <g id="board" fill-opacity="1" transform="scale(0.1016,-0.1016) translate(0,-3250.0)">
    <rect x="0" y="0" width="2500" height="3250" stroke="#006600" stroke-width="0" fill="#006600" type="Fill" layer="PCB" />
    <polygon net="0" points="660,1340 800,1340 800,1235 1099,1235 1100,1234 1360,1234 1360,1235 1370,1235 1370,1244 1370,1245 1370,1350 1370,1350 1370,1360 1360,1360 1360,1360 1100,1360 1099,1360 1090,1360 1090,1350 1089,1350 1089,1251 1090,1250 1090,1240 935,1240 935,1450 872,1450 872,1492 907,1527 1053,1527 1056,1525 1065,1523 1073,1525 1080,1529 1084,1536 1086,1545 1084,1553 1080,1560 1073,1564 1065,1566 1056,1564 1053,1562 900,1562 893,1561 887,1557 842,1512 838,1506 837,1500 837,1450 665,1450 665,1920 1095,1920 1095,1910 1095,1909 1094,1908 1094,1810 1095,1809 1095,1775 1074,1775 1070,1780 1063,1785 1055,1787 1046,1785 1039,1780 1035,1775 995,1775 995,1680 895,1680 895,1650 877,1650 877,1650 873,1665 865,1679 856,1691 844,1700 830,1708 815,1712 800,1714 784,1712 769,1708 755,1700 743,1691 734,1679 726,1665 722,1650 720,1635 722,1619 726,1604 734,1590 743,1578 755,1569 769,1561 784,1557 800,1555 815,1557 830,1561 844,1569 856,1578 865,1590 873,1604 877,1619 877,1619 895,1619 895,1590 1130,1590 1130,1621 1130,1621 1134,1628 1136,1636 1134,1644 1130,1651 1130,1651 1130,1800 1136,1800 1137,1799 1197,1799 1198,1800 1211,1800 1212,1799 1257,1799 1258,1800 1271,1800 1272,1799 1332,1799 1333,1800 1346,1800 1347,1799 1348,1799 1349,1800 1360,1800 1360,1651 1359,1651 1355,1644 1353,1636 1355,1628 1359,1621 1360,1621 1360,1530 1359,1530 1355,1523 1353,1515 1355,1506 1359,1499 1360,1499 1360,1495 1367,1495 1375,1493 1382,1495 1430,1495 1430,1472 1428,1465 1430,1457 1430,1410 1600,1410 1600,1595 1370,1595 1370,1611 1373,1615 1375,1614 1383,1616 1390,1621 1394,1628 1396,1636 1394,1644 1390,1651 1383,1656 1375,1657 1373,1657 1370,1660 1370,1808 1370,1809 1370,1810 1370,1915 1370,1915 1370,1925 1360,1925 1360,1925 1105,1925 1104,1925 665,1925 665,3225 2475,3225 2475,25 25,25 25,3225 660,3225" stroke-width="0.0" stroke="#ff9900" fill="#ff9900" stroke-linecap="round" stroke-linejoin="round" opacity="1.0" layer="BOTTOM" />
    <polygon net="0" points="1335,3009 1319,3007 1304,3003 1290,2995 1278,2986 1269,2974 1261,2960 1257,2945 1255,2930 1257,2914 1261,2899 1269,2885 1278,2873 1290,2864 1304,2856 1319,2852 1335,2850 1350,2852 1365,2856 1379,2864 1391,2873 1400,2885 1408,2899 1412,2914 1414,2930 1412,2945 1408,2960 1400,2974 1391,2986 1379,2995 1365,3003 1350,3007" stroke-width="0.0" stroke="#006600" fill="#006600" stroke-linecap="round" stroke-linejoin="round" opacity="1.0" layer="BOTTOM" />
    <polygon net="0" points="1360,384 1344,382 1329,378 1315,370 1303,361 1294,349 1286,335 1282,320 1280,305 1282,289 1286,274 1294,260 1303,248 1315,239 1329,231 1344,227 1360,225 1375,227 1390,231 1404,239 1416,248 1425,260 1433,274 1437,289 1439,305 1437,320 1433,335 1425,349 1416,361 1404,370 1390,378 1375,382" stroke-width="0.0" stroke="#006600" fill="#006600" stroke-linecap="round" stroke-linejoin="round" opacity="1.0" layer="BOTTOM" />
    <polygon net="2" points="1360,1810 1359,1810 1350,1810 1348,1810 1347,1810 1340,1811 1332,1810 1272,1810 1265,1811 1257,1810 1212,1810 1205,1811 1197,1810 1137,1810 1130,1811 1122,1810 1105,1810 1105,1908 1105,1910 1105,1915 1360,1915" stroke-width="0.0" stroke="#ff9900" fill="#ff9900" stroke-linecap="round" stroke-linejoin="round" opacity="1.0" layer="BOTTOM" />
    <polygon net="7" points="1360,1245 1100,1245 1100,1250 1100,1251 1100,1350 1360,1350" stroke-width="0.0" stroke="#ff9900" fill="#ff9900" stroke-linecap="round" stroke-linejoin="round" opacity="1.0" layer="BOTTOM" />
    <polygon net="0" points="718,1280 718,1330 781,1330 781,1280" stroke-width="0.0" stroke="#ff9900" fill="#ff9900" stroke-linecap="round" stroke-linejoin="round" opacity="1.0" layer="BOTTOM" />
    <polygon net="14" points="718,1360 718,1410 781,1410 781,1360" stroke-width="0.0" stroke="#ff9900" fill="#ff9900" stroke-linecap="round" stroke-linejoin="round" opacity="1.0" layer="BOTTOM" />
    <polygon net="15" points="923,1610 923,1660 986,1660 986,1610" stroke-width="0.0" stroke="#ff9900" fill="#ff9900" stroke-linecap="round" stroke-linejoin="round" opacity="1.0" layer="BOTTOM" />
    <polygon net="0" points="923,1690 923,1740 986,1740 986,1690" stroke-width="0.0" stroke="#ff9900" fill="#ff9900" stroke-linecap="round" stroke-linejoin="round" opacity="1.0" layer="BOTTOM" />
    <polygon net="15" points="1023,1610 1023,1660 1086,1660 1086,1610" stroke-width="0.0" stroke="#ff9900" fill="#ff9900" stroke-linecap="round" stroke-linejoin="round" opacity="1.0" layer="BOTTOM" />
    <polygon net="2" points="1023,1690 1023,1740 1086,1740 1086,1690" stroke-width="0.0" stroke="#ff9900" fill="#ff9900" stroke-linecap="round" stroke-linejoin="round" opacity="1.0" layer="BOTTOM" />
    <line net="0" x1="1365" y1="1795" x2="1380" y2="1795" stroke-width="10" stroke="#ff9900" stroke-linecap="round" stroke-linejoin="round" opacity="1.0" layer="BOTTOM" />
    <line net="0" x1="1350" y1="1795" x2="1365" y2="1795" stroke-width="10" stroke="#ff9900" stroke-linecap="round" stroke-linejoin="round" opacity="1.0" layer="BOTTOM" />
    <line net="0" x1="1365" y1="1670" x2="1385" y2="1670" stroke-width="10" stroke="#ff9900" stroke-linecap="round" stroke-linejoin="round" opacity="1.0" layer="BOTTOM" />
    <line net="0" x1="1350" y1="1670" x2="1365" y2="1670" stroke-width="10" stroke="#ff9900" stroke-linecap="round" stroke-linejoin="round" opacity="1.0" layer="BOTTOM" />
    <line net="0" x1="1365" y1="1670" x2="1365" y2="1795" stroke-width="12" stroke="#ff9900" stroke-linecap="round" stroke-linejoin="round" opacity="1.0" layer="BOTTOM" />
    <line net="0" x1="662" y1="1455" x2="662" y2="1923" stroke-width="10" stroke="#ff9900" stroke-linecap="round" stroke-linejoin="round" opacity="1.0" layer="BOTTOM" />
    <line net="0" x1="662" y1="1923" x2="662" y2="3220" stroke-width="10" stroke="#ff9900" stroke-linecap="round" stroke-linejoin="round" opacity="1.0" layer="BOTTOM" />
    <line net="0" x1="1090" y1="1910" x2="1090" y2="1922" stroke-width="10" stroke="#ff9900" stroke-linecap="round" stroke-linejoin="round" opacity="1.0" layer="BOTTOM" />
    <line net="0" x1="1090" y1="1922" x2="1090" y2="1935" stroke-width="10" stroke="#ff9900" stroke-linecap="round" stroke-linejoin="round" opacity="1.0" layer="BOTTOM" />
    <line net="0" x1="662" y1="1923" x2="663" y2="1922" stroke-width="10" stroke="#ff9900" stroke-linecap="round" stroke-linejoin="round" opacity="1.0" layer="BOTTOM" />
    <line net="0" x1="663" y1="1922" x2="1090" y2="1922" stroke-width="10" stroke="#ff9900" stroke-linecap="round" stroke-linejoin="round" opacity="1.0" layer="BOTTOM" />
    <line net="0" x1="662" y1="1455" x2="675" y2="1455" stroke-width="10" stroke="#ff9900" stroke-linecap="round" stroke-linejoin="round" opacity="1.0" layer="BOTTOM" />
    <line net="0" x1="650" y1="1455" x2="662" y2="1455" stroke-width="10" stroke="#ff9900" stroke-linecap="round" stroke-linejoin="round" opacity="1.0" layer="BOTTOM" />
    <line net="0" x1="662" y1="3220" x2="675" y2="3220" stroke-width="10" stroke="#ff9900" stroke-linecap="round" stroke-linejoin="round" opacity="1.0" layer="BOTTOM" />
    <line net="0" x1="650" y1="3220" x2="662" y2="3220" stroke-width="10" stroke="#ff9900" stroke-linecap="round" stroke-linejoin="round" opacity="1.0" layer="BOTTOM" />
    <line net="0" x1="1085" y1="1225" x2="1085" y2="1237" stroke-width="10" stroke="#ff9900" stroke-linecap="round" stroke-linejoin="round" opacity="1.0" layer="BOTTOM" />
    <line net="0" x1="1085" y1="1237" x2="1085" y2="1250" stroke-width="10" stroke="#ff9900" stroke-linecap="round" stroke-linejoin="round" opacity="1.0" layer="BOTTOM" />
    <line net="0" x1="940" y1="1225" x2="940" y2="1240" stroke-width="10" stroke="#ff9900" stroke-linecap="round" stroke-linejoin="round" opacity="1.0" layer="BOTTOM" />
    <line net="0" x1="940" y1="1240" x2="940" y2="1250" stroke-width="10" stroke="#ff9900" stroke-linecap="round" stroke-linejoin="round" opacity="1.0" layer="BOTTOM" />
    <line net="0" x1="940" y1="1240" x2="942" y2="1237" stroke-width="10" stroke="#ff9900" stroke-linecap="round" stroke-linejoin="round" opacity="1.0" layer="BOTTOM" />
    <line net="0" x1="942" y1="1237" x2="1085" y2="1237" stroke-width="10" stroke="#ff9900" stroke-linecap="round" stroke-linejoin="round" opacity="1.0" layer="BOTTOM" />
    <line net="7" x1="1450" y1="1465" x2="1545" y2="1465" stroke-width="10" stroke="#ff9900" stroke-linecap="round" stroke-linejoin="round" opacity="1.0" layer="BOTTOM" />
    <line net="7" x1="1545" y1="1465" x2="1545" y2="1465" stroke-width="10" stroke="#ff9900" stroke-linecap="round" stroke-linejoin="round" opacity="1.0" layer="BOTTOM" />
    <line net="1" x1="1405" y1="1545" x2="1440" y2="1545" stroke-width="10" stroke="#ff9900" stroke-linecap="round" stroke-linejoin="round" opacity="1.0" layer="BOTTOM" />
    <line net="1" x1="1375" y1="1515" x2="1405" y2="1545" stroke-width="10" stroke="#ff9900" stroke-linecap="round" stroke-linejoin="round" opacity="1.0" layer="BOTTOM" />
    <line net="10" x1="855" y1="1305" x2="910" y2="1305" stroke-width="15" stroke="#ff9900" stroke-linecap="round" stroke-linejoin="round" opacity="1.0" layer="BOTTOM" />
    <line net="15" x1="800" y1="1635" x2="955" y2="1635" stroke-width="10" stroke="#ff9900" stroke-linecap="round" stroke-linejoin="round" opacity="1.0" layer="BOTTOM" />
    <line net="2" x1="1055" y1="1715" x2="1055" y2="1765" stroke-width="24" stroke="#ff9900" stroke-linecap="round" stroke-linejoin="round" opacity="1.0" layer="BOTTOM" />
    <line net="14" x1="900" y1="1545" x2="1065" y2="1545" stroke-width="15" stroke="#ff9900" stroke-linecap="round" stroke-linejoin="round" opacity="1.0" layer="BOTTOM" />
    <line net="14" x1="855" y1="1500" x2="900" y2="1545" stroke-width="15" stroke="#ff9900" stroke-linecap="round" stroke-linejoin="round" opacity="1.0" layer="BOTTOM" />
    <line net="14" x1="855" y1="1385" x2="855" y2="1500" stroke-width="15" stroke="#ff9900" stroke-linecap="round" stroke-linejoin="round" opacity="1.0" layer="BOTTOM" />
    <line net="14" x1="750" y1="1385" x2="855" y2="1385" stroke-width="15" stroke="#ff9900" stroke-linecap="round" stroke-linejoin="round" opacity="1.0" layer="BOTTOM" />
    <line net="15" x1="955" y1="1635" x2="1055" y2="1635" stroke-width="10" stroke="#ff9900" stroke-linecap="round" stroke-linejoin="round" opacity="1.0" layer="BOTTOM" />
    <line net="15" x1="1113" y1="1635" x2="1115" y2="1636" stroke-width="10" stroke="#ff9900" stroke-linecap="round" stroke-linejoin="round" opacity="1.0" layer="BOTTOM" />
    <line net="15" x1="1055" y1="1635" x2="1113" y2="1635" stroke-width="10" stroke="#ff9900" stroke-linecap="round" stroke-linejoin="round" opacity="1.0" layer="BOTTOM" />
    <line net="1" x1="1545" y1="1545" x2="1545" y2="1545" stroke-width="10" stroke="#ff9900" stroke-linecap="round" stroke-linejoin="round" opacity="1.0" layer="BOTTOM" />
    <line net="1" x1="1440" y1="1545" x2="1545" y2="1545" stroke-width="10" stroke="#ff9900" stroke-linecap="round" stroke-linejoin="round" opacity="1.0" layer="BOTTOM" />
    <line net="0" x1="955" y1="1715" x2="955" y2="1775" stroke-width="10" stroke="#ff9900" stroke-linecap="round" stroke-linejoin="round" opacity="1.0" layer="BOTTOM" />
    <line net="0" x1="945" y1="1785" x2="955" y2="1775" stroke-width="10" stroke="#ff9900" stroke-linecap="round" stroke-linejoin="round" opacity="1.0" layer="BOTTOM" />
    <line net="0" x1="750" y1="1250" x2="750" y2="1305" stroke-width="10" stroke="#ff9900" stroke-linecap="round" stroke-linejoin="round" opacity="1.0" layer="BOTTOM" />
    <line net="0" x1="1440" y1="1625" x2="1440" y2="1655" stroke-width="10" stroke="#ff9900" stroke-linecap="round" stroke-linejoin="round" opacity="1.0" layer="BOTTOM" />
    <line net="0" x1="1440" y1="1655" x2="1485" y2="1700" stroke-width="10" stroke="#ff9900" stroke-linecap="round" stroke-linejoin="round" opacity="1.0" layer="BOTTOM" />
    <line net="10" x1="854" y1="1287" x2="854" y2="1323" stroke-width="10" stroke="#ff9900" stroke-linecap="round" stroke-linejoin="round" opacity="1.0" layer="BOTTOM" />
    <line net="14" x1="854" y1="1367" x2="854" y2="1403" stroke-width="10" stroke="#ff9900" stroke-linecap="round" stroke-linejoin="round" opacity="1.0" layer="BOTTOM" />
    <line net="1" x1="1439" y1="1527" x2="1439" y2="1563" stroke-width="10" stroke="#ff9900" stroke-linecap="round" stroke-linejoin="round" opacity="1.0" layer="BOTTOM" />
    <line net="0" x1="1439" y1="1607" x2="1439" y2="1643" stroke-width="10" stroke="#ff9900" stroke-linecap="round" stroke-linejoin="round" opacity="1.0" layer="BOTTOM" />
    <line net="1" x1="1544" y1="1527" x2="1544" y2="1563" stroke-width="10" stroke="#ff9900" stroke-linecap="round" stroke-linejoin="round" opacity="1.0" layer="BOTTOM" />
    <line net="7" x1="1544" y1="1447" x2="1544" y2="1483" stroke-width="10" stroke="#ff9900" stroke-linecap="round" stroke-linejoin="round" opacity="1.0" layer="BOTTOM" />
    <rect comp="3" net="1" pin="1" x="1427.9" y="1557.1" width="24" height="22" stroke-width="0" stroke="#ff9900" fill="#ff9900" opacity="1.0" layer="BOTTOM" />
    <rect comp="3" net="0" pin="2" x="1427.9" y="1590.1" width="24" height="22" stroke-width="0" stroke="#ff9900" fill="#ff9900" opacity="1.0" layer="BOTTOM" />
    <rect comp="4" net="7" pin="1" x="1532.7" y="1477.4" width="24" height="22" stroke-width="0" stroke="#ff9900" fill="#ff9900" opacity="1.0" layer="BOTTOM" />
    <rect comp="4" net="1" pin="2" x="1532.7" y="1510.4" width="24" height="22" stroke-width="0" stroke="#ff9900" fill="#ff9900" opacity="1.0" layer="BOTTOM" />
    <rect comp="6" net="14" pin="1" x="826.3" y="1357.9" width="57" height="44" stroke-width="0" stroke="#ff9900" fill="#ff9900" opacity="1.0" layer="BOTTOM" />
    <rect comp="6" net="10" pin="2" x="826.3" y="1286.9" width="57" height="44" stroke-width="0" stroke="#ff9900" fill="#ff9900" opacity="1.0" layer="BOTTOM" />
    <circle net="0" cx="1440" cy="185" r="7" r1="11" r2="4" stroke-width="7" stroke="#ff9900" fill="#ffffff" opacity="1" layer="MULTILAYER" />
    <circle net="0" cx="1050" cy="535" r="7" r1="11" r2="4" stroke-width="7" stroke="#ff9900" fill="#ffffff" opacity="1" layer="MULTILAYER" />
    <circle net="0" cx="1100" cy="535" r="7" r1="11" r2="4" stroke-width="7" stroke="#ff9900" fill="#ffffff" opacity="1" layer="MULTILAYER" />
    <circle net="0" cx="1145" cy="535" r="7" r1="11" r2="4" stroke-width="7" stroke="#ff9900" fill="#ffffff" opacity="1" layer="MULTILAYER" />
    <circle net="0" cx="1250" cy="3055" r="7" r1="11" r2="4" stroke-width="7" stroke="#ff9900" fill="#ffffff" opacity="1" layer="MULTILAYER" />
    <circle net="0" cx="1300" cy="3055" r="7" r1="11" r2="4" stroke-width="7" stroke="#ff9900" fill="#ffffff" opacity="1" layer="MULTILAYER" />
    <circle net="0" cx="1350" cy="3055" r="7" r1="11" r2="4" stroke-width="7" stroke="#ff9900" fill="#ffffff" opacity="1" layer="MULTILAYER" />
    <circle net="0" cx="1400" cy="3055" r="7" r1="11" r2="4" stroke-width="7" stroke="#ff9900" fill="#ffffff" opacity="1" layer="MULTILAYER" />
    <circle net="0" cx="1440" cy="3055" r="7" r1="11" r2="4" stroke-width="7" stroke="#ff9900" fill="#ffffff" opacity="1" layer="MULTILAYER" />
    <circle net="0" cx="1485" cy="3035" r="7" r1="11" r2="4" stroke-width="7" stroke="#ff9900" fill="#ffffff" opacity="1" layer="MULTILAYER" />
    <circle net="0" cx="1250" cy="185" r="7" r1="11" r2="4" stroke-width="7" stroke="#ff9900" fill="#ffffff" opacity="1" layer="MULTILAYER" />
    <circle net="0" cx="1300" cy="185" r="7" r1="11" r2="4" stroke-width="7" stroke="#ff9900" fill="#ffffff" opacity="1" layer="MULTILAYER" />
    <circle net="0" cx="1350" cy="185" r="7" r1="11" r2="4" stroke-width="7" stroke="#ff9900" fill="#ffffff" opacity="1" layer="MULTILAYER" />
    <circle net="0" cx="1400" cy="185" r="7" r1="11" r2="4" stroke-width="7" stroke="#ff9900" fill="#ffffff" opacity="1" layer="MULTILAYER" />
    <circle net="0" cx="1485" cy="210" r="7" r1="11" r2="4" stroke-width="7" stroke="#ff9900" fill="#ffffff" opacity="1" layer="MULTILAYER" />
    <circle net="0" cx="1050" cy="2770" r="7" r1="11" r2="4" stroke-width="7" stroke="#ff9900" fill="#ffffff" opacity="1" layer="MULTILAYER" />
    <circle net="0" cx="1100" cy="2770" r="7" r1="11" r2="4" stroke-width="7" stroke="#ff9900" fill="#ffffff" opacity="1" layer="MULTILAYER" />
    <circle net="0" cx="1175" cy="2900" r="7" r1="11" r2="4" stroke-width="7" stroke="#ff9900" fill="#ffffff" opacity="1" layer="MULTILAYER" />
    <circle net="0" cx="1175" cy="2950" r="7" r1="11" r2="4" stroke-width="7" stroke="#ff9900" fill="#ffffff" opacity="1" layer="MULTILAYER" />
    <circle net="0" cx="1175" cy="3000" r="7" r1="11" r2="4" stroke-width="7" stroke="#ff9900" fill="#ffffff" opacity="1" layer="MULTILAYER" />
    <circle net="0" cx="1175" cy="3050" r="7" r1="11" r2="4" stroke-width="7" stroke="#ff9900" fill="#ffffff" opacity="1" layer="MULTILAYER" />
    <circle net="0" cx="1175" cy="2850" r="7" r1="11" r2="4" stroke-width="7" stroke="#ff9900" fill="#ffffff" opacity="1" layer="MULTILAYER" />
    <circle net="0" cx="1175" cy="2800" r="7" r1="11" r2="4" stroke-width="7" stroke="#ff9900" fill="#ffffff" opacity="1" layer="MULTILAYER" />
    <circle net="0" cx="1140" cy="2775" r="7" r1="11" r2="4" stroke-width="7" stroke="#ff9900" fill="#ffffff" opacity="1" layer="MULTILAYER" />
    <circle net="0" cx="1000" cy="2750" r="7" r1="11" r2="4" stroke-width="7" stroke="#ff9900" fill="#ffffff" opacity="1" layer="MULTILAYER" />
    <circle net="0" cx="1000" cy="2700" r="7" r1="11" r2="4" stroke-width="7" stroke="#ff9900" fill="#ffffff" opacity="1" layer="MULTILAYER" />
    <circle net="0" cx="1000" cy="2650" r="7" r1="11" r2="4" stroke-width="7" stroke="#ff9900" fill="#ffffff" opacity="1" layer="MULTILAYER" />
    <circle net="0" cx="1000" cy="2600" r="7" r1="11" r2="4" stroke-width="7" stroke="#ff9900" fill="#ffffff" opacity="1" layer="MULTILAYER" />
    <circle net="0" cx="1000" cy="2550" r="7" r1="11" r2="4" stroke-width="7" stroke="#ff9900" fill="#ffffff" opacity="1" layer="MULTILAYER" />
    <circle net="0" cx="1000" cy="2500" r="7" r1="11" r2="4" stroke-width="7" stroke="#ff9900" fill="#ffffff" opacity="1" layer="MULTILAYER" />
    <circle net="0" cx="1000" cy="2450" r="7" r1="11" r2="4" stroke-width="7" stroke="#ff9900" fill="#ffffff" opacity="1" layer="MULTILAYER" />
    <circle net="0" cx="1000" cy="2400" r="7" r1="11" r2="4" stroke-width="7" stroke="#ff9900" fill="#ffffff" opacity="1" layer="MULTILAYER" />
    <circle net="0" cx="1000" cy="2350" r="7" r1="11" r2="4" stroke-width="7" stroke="#ff9900" fill="#ffffff" opacity="1" layer="MULTILAYER" />
    <circle net="0" cx="1000" cy="2300" r="7" r1="11" r2="4" stroke-width="7" stroke="#ff9900" fill="#ffffff" opacity="1" layer="MULTILAYER" />
    <circle net="0" cx="1000" cy="2250" r="7" r1="11" r2="4" stroke-width="7" stroke="#ff9900" fill="#ffffff" opacity="1" layer="MULTILAYER" />
    <circle net="0" cx="1000" cy="2200" r="7" r1="11" r2="4" stroke-width="7" stroke="#ff9900" fill="#ffffff" opacity="1" layer="MULTILAYER" />
    <circle net="0" cx="1000" cy="2150" r="7" r1="11" r2="4" stroke-width="7" stroke="#ff9900" fill="#ffffff" opacity="1" layer="MULTILAYER" />
    <circle net="0" cx="1000" cy="2100" r="7" r1="11" r2="4" stroke-width="7" stroke="#ff9900" fill="#ffffff" opacity="1" layer="MULTILAYER" />
    <circle net="0" cx="1000" cy="2050" r="7" r1="11" r2="4" stroke-width="7" stroke="#ff9900" fill="#ffffff" opacity="1" layer="MULTILAYER" />
    <circle net="0" cx="1000" cy="2000" r="7" r1="11" r2="4" stroke-width="7" stroke="#ff9900" fill="#ffffff" opacity="1" layer="MULTILAYER" />
    <circle net="0" cx="1000" cy="1950" r="7" r1="11" r2="4" stroke-width="7" stroke="#ff9900" fill="#ffffff" opacity="1" layer="MULTILAYER" />
    <circle net="0" cx="1000" cy="1900" r="7" r1="11" r2="4" stroke-width="7" stroke="#ff9900" fill="#ffffff" opacity="1" layer="MULTILAYER" />
    <circle net="0" cx="1000" cy="1850" r="7" r1="11" r2="4" stroke-width="7" stroke="#ff9900" fill="#ffffff" opacity="1" layer="MULTILAYER" />
    <circle net="0" cx="1000" cy="1800" r="7" r1="11" r2="4" stroke-width="7" stroke="#ff9900" fill="#ffffff" opacity="1" layer="MULTILAYER" />
    <circle net="0" cx="1000" cy="1350" r="7" r1="11" r2="4" stroke-width="7" stroke="#ff9900" fill="#ffffff" opacity="1" layer="MULTILAYER" />
    <circle net="0" cx="1000" cy="1400" r="7" r1="11" r2="4" stroke-width="7" stroke="#ff9900" fill="#ffffff" opacity="1" layer="MULTILAYER" />
    <circle net="0" cx="1000" cy="1450" r="7" r1="11" r2="4" stroke-width="7" stroke="#ff9900" fill="#ffffff" opacity="1" layer="MULTILAYER" />
    <circle net="0" cx="1000" cy="1500" r="7" r1="11" r2="4" stroke-width="7" stroke="#ff9900" fill="#ffffff" opacity="1" layer="MULTILAYER" />
    <circle net="0" cx="1000" cy="1300" r="7" r1="11" r2="4" stroke-width="7" stroke="#ff9900" fill="#ffffff" opacity="1" layer="MULTILAYER" />
    <circle net="0" cx="1000" cy="1250" r="7" r1="11" r2="4" stroke-width="7" stroke="#ff9900" fill="#ffffff" opacity="1" layer="MULTILAYER" />
    <circle net="0" cx="1000" cy="1220" r="7" r1="11" r2="4" stroke-width="7" stroke="#ff9900" fill="#ffffff" opacity="1" layer="MULTILAYER" />
    <circle net="0" cx="1000" cy="1150" r="7" r1="11" r2="4" stroke-width="7" stroke="#ff9900" fill="#ffffff" opacity="1" layer="MULTILAYER" />
    <circle net="0" cx="1000" cy="1100" r="7" r1="11" r2="4" stroke-width="7" stroke="#ff9900" fill="#ffffff" opacity="1" layer="MULTILAYER" />
    <circle net="0" cx="1000" cy="1050" r="7" r1="11" r2="4" stroke-width="7" stroke="#ff9900" fill="#ffffff" opacity="1" layer="MULTILAYER" />
    <circle net="0" cx="1000" cy="1000" r="7" r1="11" r2="4" stroke-width="7" stroke="#ff9900" fill="#ffffff" opacity="1" layer="MULTILAYER" />
    <circle net="0" cx="1000" cy="950" r="7" r1="11" r2="4" stroke-width="7" stroke="#ff9900" fill="#ffffff" opacity="1" layer="MULTILAYER" />
    <circle net="0" cx="1000" cy="900" r="7" r1="11" r2="4" stroke-width="7" stroke="#ff9900" fill="#ffffff" opacity="1" layer="MULTILAYER" />
    <circle net="0" cx="1000" cy="850" r="7" r1="11" r2="4" stroke-width="7" stroke="#ff9900" fill="#ffffff" opacity="1" layer="MULTILAYER" />
    <circle net="0" cx="1000" cy="800" r="7" r1="11" r2="4" stroke-width="7" stroke="#ff9900" fill="#ffffff" opacity="1" layer="MULTILAYER" />
    <circle net="0" cx="1000" cy="750" r="7" r1="11" r2="4" stroke-width="7" stroke="#ff9900" fill="#ffffff" opacity="1" layer="MULTILAYER" />
    <circle net="0" cx="1000" cy="700" r="7" r1="11" r2="4" stroke-width="7" stroke="#ff9900" fill="#ffffff" opacity="1" layer="MULTILAYER" />
    <circle net="0" cx="1000" cy="650" r="7" r1="11" r2="4" stroke-width="7" stroke="#ff9900" fill="#ffffff" opacity="1" layer="MULTILAYER" />
    <circle net="0" cx="1000" cy="600" r="7" r1="11" r2="4" stroke-width="7" stroke="#ff9900" fill="#ffffff" opacity="1" layer="MULTILAYER" />
    <circle net="0" cx="1000" cy="550" r="7" r1="11" r2="4" stroke-width="7" stroke="#ff9900" fill="#ffffff" opacity="1" layer="MULTILAYER" />
    <circle net="0" cx="1175" cy="500" r="7" r1="11" r2="4" stroke-width="7" stroke="#ff9900" fill="#ffffff" opacity="1" layer="MULTILAYER" />
    <circle net="0" cx="1175" cy="450" r="7" r1="11" r2="4" stroke-width="7" stroke="#ff9900" fill="#ffffff" opacity="1" layer="MULTILAYER" />
    <circle net="0" cx="1175" cy="400" r="7" r1="11" r2="4" stroke-width="7" stroke="#ff9900" fill="#ffffff" opacity="1" layer="MULTILAYER" />
    <circle net="0" cx="1175" cy="350" r="7" r1="11" r2="4" stroke-width="7" stroke="#ff9900" fill="#ffffff" opacity="1" layer="MULTILAYER" />
    <circle net="0" cx="1175" cy="300" r="7" r1="11" r2="4" stroke-width="7" stroke="#ff9900" fill="#ffffff" opacity="1" layer="MULTILAYER" />
    <circle net="0" cx="1175" cy="250" r="7" r1="11" r2="4" stroke-width="7" stroke="#ff9900" fill="#ffffff" opacity="1" layer="MULTILAYER" />
    <circle net="0" cx="1175" cy="200" r="7" r1="11" r2="4" stroke-width="7" stroke="#ff9900" fill="#ffffff" opacity="1" layer="MULTILAYER" />
    <circle net="0" cx="1485" cy="1250" r="7" r1="11" r2="4" stroke-width="7" stroke="#ff9900" fill="#ffffff" opacity="1" layer="MULTILAYER" />
    <circle net="0" cx="1485" cy="1300" r="7" r1="11" r2="4" stroke-width="7" stroke="#ff9900" fill="#ffffff" opacity="1" layer="MULTILAYER" />
    <circle net="0" cx="1485" cy="1340" r="7" r1="11" r2="4" stroke-width="7" stroke="#ff9900" fill="#ffffff" opacity="1" layer="MULTILAYER" />
    <circle net="0" cx="1485" cy="1400" r="7" r1="11" r2="4" stroke-width="7" stroke="#ff9900" fill="#ffffff" opacity="1" layer="MULTILAYER" />
    <circle net="0" cx="1485" cy="1200" r="7" r1="11" r2="4" stroke-width="7" stroke="#ff9900" fill="#ffffff" opacity="1" layer="MULTILAYER" />
    <circle net="0" cx="1485" cy="1150" r="7" r1="11" r2="4" stroke-width="7" stroke="#ff9900" fill="#ffffff" opacity="1" layer="MULTILAYER" />
    <circle net="0" cx="1485" cy="1100" r="7" r1="11" r2="4" stroke-width="7" stroke="#ff9900" fill="#ffffff" opacity="1" layer="MULTILAYER" />
    <circle net="0" cx="1485" cy="1050" r="7" r1="11" r2="4" stroke-width="7" stroke="#ff9900" fill="#ffffff" opacity="1" layer="MULTILAYER" />
    <circle net="0" cx="1485" cy="1000" r="7" r1="11" r2="4" stroke-width="7" stroke="#ff9900" fill="#ffffff" opacity="1" layer="MULTILAYER" />
    <circle net="0" cx="1485" cy="950" r="7" r1="11" r2="4" stroke-width="7" stroke="#ff9900" fill="#ffffff" opacity="1" layer="MULTILAYER" />
    <circle net="0" cx="1485" cy="900" r="7" r1="11" r2="4" stroke-width="7" stroke="#ff9900" fill="#ffffff" opacity="1" layer="MULTILAYER" />
    <circle net="0" cx="1485" cy="850" r="7" r1="11" r2="4" stroke-width="7" stroke="#ff9900" fill="#ffffff" opacity="1" layer="MULTILAYER" />
    <circle net="0" cx="1485" cy="800" r="7" r1="11" r2="4" stroke-width="7" stroke="#ff9900" fill="#ffffff" opacity="1" layer="MULTILAYER" />
    <circle net="0" cx="1485" cy="750" r="7" r1="11" r2="4" stroke-width="7" stroke="#ff9900" fill="#ffffff" opacity="1" layer="MULTILAYER" />
    <circle net="0" cx="1485" cy="700" r="7" r1="11" r2="4" stroke-width="7" stroke="#ff9900" fill="#ffffff" opacity="1" layer="MULTILAYER" />
    <circle net="0" cx="1485" cy="650" r="7" r1="11" r2="4" stroke-width="7" stroke="#ff9900" fill="#ffffff" opacity="1" layer="MULTILAYER" />
    <circle net="0" cx="1485" cy="600" r="7" r1="11" r2="4" stroke-width="7" stroke="#ff9900" fill="#ffffff" opacity="1" layer="MULTILAYER" />
    <circle net="0" cx="1485" cy="550" r="7" r1="11" r2="4" stroke-width="7" stroke="#ff9900" fill="#ffffff" opacity="1" layer="MULTILAYER" />
    <circle net="0" cx="1485" cy="500" r="7" r1="11" r2="4" stroke-width="7" stroke="#ff9900" fill="#ffffff" opacity="1" layer="MULTILAYER" />
    <circle net="0" cx="1485" cy="450" r="7" r1="11" r2="4" stroke-width="7" stroke="#ff9900" fill="#ffffff" opacity="1" layer="MULTILAYER" />
    <circle net="0" cx="1485" cy="400" r="7" r1="11" r2="4" stroke-width="7" stroke="#ff9900" fill="#ffffff" opacity="1" layer="MULTILAYER" />
    <circle net="0" cx="1485" cy="350" r="7" r1="11" r2="4" stroke-width="7" stroke="#ff9900" fill="#ffffff" opacity="1" layer="MULTILAYER" />
    <circle net="0" cx="1485" cy="300" r="7" r1="11" r2="4" stroke-width="7" stroke="#ff9900" fill="#ffffff" opacity="1" layer="MULTILAYER" />
    <circle net="0" cx="1485" cy="250" r="7" r1="11" r2="4" stroke-width="7" stroke="#ff9900" fill="#ffffff" opacity="1" layer="MULTILAYER" />
    <circle net="0" cx="1485" cy="1700" r="7" r1="11" r2="4" stroke-width="7" stroke="#ff9900" fill="#ffffff" opacity="1" layer="MULTILAYER" />
    <circle net="0" cx="1485" cy="1750" r="7" r1="11" r2="4" stroke-width="7" stroke="#ff9900" fill="#ffffff" opacity="1" layer="MULTILAYER" />
    <circle net="0" cx="1485" cy="1785" r="7" r1="11" r2="4" stroke-width="7" stroke="#ff9900" fill="#ffffff" opacity="1" layer="MULTILAYER" />
    <circle net="0" cx="1485" cy="1850" r="7" r1="11" r2="4" stroke-width="7" stroke="#ff9900" fill="#ffffff" opacity="1" layer="MULTILAYER" />
    <circle net="0" cx="1485" cy="1900" r="7" r1="11" r2="4" stroke-width="7" stroke="#ff9900" fill="#ffffff" opacity="1" layer="MULTILAYER" />
    <circle net="0" cx="1485" cy="1950" r="7" r1="11" r2="4" stroke-width="7" stroke="#ff9900" fill="#ffffff" opacity="1" layer="MULTILAYER" />
    <circle net="0" cx="1485" cy="2000" r="7" r1="11" r2="4" stroke-width="7" stroke="#ff9900" fill="#ffffff" opacity="1" layer="MULTILAYER" />
    <circle net="0" cx="1485" cy="2050" r="7" r1="11" r2="4" stroke-width="7" stroke="#ff9900" fill="#ffffff" opacity="1" layer="MULTILAYER" />
    <circle net="0" cx="1485" cy="2100" r="7" r1="11" r2="4" stroke-width="7" stroke="#ff9900" fill="#ffffff" opacity="1" layer="MULTILAYER" />
    <circle net="0" cx="1485" cy="2150" r="7" r1="11" r2="4" stroke-width="7" stroke="#ff9900" fill="#ffffff" opacity="1" layer="MULTILAYER" />
    <circle net="0" cx="1485" cy="2200" r="7" r1="11" r2="4" stroke-width="7" stroke="#ff9900" fill="#ffffff" opacity="1" layer="MULTILAYER" />
    <circle net="0" cx="1485" cy="2250" r="7" r1="11" r2="4" stroke-width="7" stroke="#ff9900" fill="#ffffff" opacity="1" layer="MULTILAYER" />
    <circle net="0" cx="1485" cy="2300" r="7" r1="11" r2="4" stroke-width="7" stroke="#ff9900" fill="#ffffff" opacity="1" layer="MULTILAYER" />
    <circle net="0" cx="1485" cy="2350" r="7" r1="11" r2="4" stroke-width="7" stroke="#ff9900" fill="#ffffff" opacity="1" layer="MULTILAYER" />
    <circle net="0" cx="1485" cy="2400" r="7" r1="11" r2="4" stroke-width="7" stroke="#ff9900" fill="#ffffff" opacity="1" layer="MULTILAYER" />
    <circle net="0" cx="1485" cy="2450" r="7" r1="11" r2="4" stroke-width="7" stroke="#ff9900" fill="#ffffff" opacity="1" layer="MULTILAYER" />
    <circle net="0" cx="1485" cy="2500" r="7" r1="11" r2="4" stroke-width="7" stroke="#ff9900" fill="#ffffff" opacity="1" layer="MULTILAYER" />
    <circle net="0" cx="1485" cy="2550" r="7" r1="11" r2="4" stroke-width="7" stroke="#ff9900" fill="#ffffff" opacity="1" layer="MULTILAYER" />
    <circle net="0" cx="1485" cy="2600" r="7" r1="11" r2="4" stroke-width="7" stroke="#ff9900" fill="#ffffff" opacity="1" layer="MULTILAYER" />
    <circle net="0" cx="1485" cy="2650" r="7" r1="11" r2="4" stroke-width="7" stroke="#ff9900" fill="#ffffff" opacity="1" layer="MULTILAYER" />
    <circle net="0" cx="1485" cy="2700" r="7" r1="11" r2="4" stroke-width="7" stroke="#ff9900" fill="#ffffff" opacity="1" layer="MULTILAYER" />
    <circle net="0" cx="1485" cy="2750" r="7" r1="11" r2="4" stroke-width="7" stroke="#ff9900" fill="#ffffff" opacity="1" layer="MULTILAYER" />
    <circle net="0" cx="1485" cy="2800" r="7" r1="11" r2="4" stroke-width="7" stroke="#ff9900" fill="#ffffff" opacity="1" layer="MULTILAYER" />
    <circle net="0" cx="1485" cy="3000" r="7" r1="11" r2="4" stroke-width="7" stroke="#ff9900" fill="#ffffff" opacity="1" layer="MULTILAYER" />
    <circle net="0" cx="1485" cy="2950" r="7" r1="11" r2="4" stroke-width="7" stroke="#ff9900" fill="#ffffff" opacity="1" layer="MULTILAYER" />
    <circle net="0" cx="1485" cy="2900" r="7" r1="11" r2="4" stroke-width="7" stroke="#ff9900" fill="#ffffff" opacity="1" layer="MULTILAYER" />
    <circle net="0" cx="1485" cy="2850" r="7" r1="11" r2="4" stroke-width="7" stroke="#ff9900" fill="#ffffff" opacity="1" layer="MULTILAYER" />
    <circle net="7" cx="1450" cy="1465" r="7" r1="11" r2="4" stroke-width="7" stroke="#ff9900" fill="#ffffff" opacity="1" layer="MULTILAYER" />
    <circle net="1" cx="1375" cy="1515" r="7" r1="11" r2="4" stroke-width="7" stroke="#ff9900" fill="#ffffff" opacity="1" layer="MULTILAYER" />
    <circle net="10" cx="910" cy="1305" r="7" r1="11" r2="4" stroke-width="7" stroke="#ff9900" fill="#ffffff" opacity="1" layer="MULTILAYER" />
    <circle net="0" cx="1340" cy="1375" r="7" r1="11" r2="4" stroke-width="7" stroke="#ff9900" fill="#ffffff" opacity="1" layer="MULTILAYER" />
    <circle net="7" cx="1290" cy="1335" r="7" r1="11" r2="4" stroke-width="7" stroke="#ff9900" fill="#ffffff" opacity="1" layer="MULTILAYER" />
    <circle net="7" cx="1180" cy="1260" r="7" r1="11" r2="4" stroke-width="7" stroke="#ff9900" fill="#ffffff" opacity="1" layer="MULTILAYER" />
    <circle net="7" cx="1265" cy="1335" r="7" r1="11" r2="4" stroke-width="7" stroke="#ff9900" fill="#ffffff" opacity="1" layer="MULTILAYER" />
    <circle net="2" cx="1055" cy="1765" r="7" r1="11" r2="4" stroke-width="7" stroke="#ff9900" fill="#ffffff" opacity="1" layer="MULTILAYER" />
    <circle net="7" cx="1315" cy="1260" r="7" r1="11" r2="4" stroke-width="7" stroke="#ff9900" fill="#ffffff" opacity="1" layer="MULTILAYER" />
    <circle net="7" cx="1340" cy="1335" r="7" r1="11" r2="4" stroke-width="7" stroke="#ff9900" fill="#ffffff" opacity="1" layer="MULTILAYER" />
    <circle net="7" cx="1290" cy="1260" r="7" r1="11" r2="4" stroke-width="7" stroke="#ff9900" fill="#ffffff" opacity="1" layer="MULTILAYER" />
    <circle net="7" cx="1340" cy="1260" r="7" r1="11" r2="4" stroke-width="7" stroke="#ff9900" fill="#ffffff" opacity="1" layer="MULTILAYER" />
    <circle net="7" cx="1315" cy="1335" r="7" r1="11" r2="4" stroke-width="7" stroke="#ff9900" fill="#ffffff" opacity="1" layer="MULTILAYER" />
    <circle net="2" cx="1340" cy="1825" r="7" r1="11" r2="4" stroke-width="7" stroke="#ff9900" fill="#ffffff" opacity="1" layer="MULTILAYER" />
    <circle net="2" cx="1130" cy="1900" r="7" r1="11" r2="4" stroke-width="7" stroke="#ff9900" fill="#ffffff" opacity="1" layer="MULTILAYER" />
    <circle net="2" cx="1155" cy="1900" r="7" r1="11" r2="4" stroke-width="7" stroke="#ff9900" fill="#ffffff" opacity="1" layer="MULTILAYER" />
    <circle net="2" cx="1180" cy="1900" r="7" r1="11" r2="4" stroke-width="7" stroke="#ff9900" fill="#ffffff" opacity="1" layer="MULTILAYER" />
    <circle net="2" cx="1205" cy="1900" r="7" r1="11" r2="4" stroke-width="7" stroke="#ff9900" fill="#ffffff" opacity="1" layer="MULTILAYER" />
    <circle net="2" cx="1340" cy="1900" r="7" r1="11" r2="4" stroke-width="7" stroke="#ff9900" fill="#ffffff" opacity="1" layer="MULTILAYER" />
    <circle net="2" cx="1155" cy="1825" r="7" r1="11" r2="4" stroke-width="7" stroke="#ff9900" fill="#ffffff" opacity="1" layer="MULTILAYER" />
    <circle net="2" cx="1180" cy="1825" r="7" r1="11" r2="4" stroke-width="7" stroke="#ff9900" fill="#ffffff" opacity="1" layer="MULTILAYER" />
    <circle net="2" cx="1290" cy="1825" r="7" r1="11" r2="4" stroke-width="7" stroke="#ff9900" fill="#ffffff" opacity="1" layer="MULTILAYER" />
    <circle net="2" cx="1315" cy="1825" r="7" r1="11" r2="4" stroke-width="7" stroke="#ff9900" fill="#ffffff" opacity="1" layer="MULTILAYER" />
    <circle net="2" cx="1130" cy="1825" r="7" r1="11" r2="4" stroke-width="7" stroke="#ff9900" fill="#ffffff" opacity="1" layer="MULTILAYER" />
    <circle net="2" cx="1205" cy="1825" r="7" r1="11" r2="4" stroke-width="7" stroke="#ff9900" fill="#ffffff" opacity="1" layer="MULTILAYER" />
    <circle net="0" cx="945" cy="1785" r="7" r1="11" r2="4" stroke-width="7" stroke="#ff9900" fill="#ffffff" opacity="1" layer="MULTILAYER" />
    <circle net="15" cx="1115" cy="1636" r="7" r1="11" r2="4" stroke-width="7" stroke="#ff9900" fill="#ffffff" opacity="1" layer="MULTILAYER" />
    <circle net="10" cx="1375" cy="1636" r="7" r1="11" r2="4" stroke-width="7" stroke="#ff9900" fill="#ffffff" opacity="1" layer="MULTILAYER" />
    <circle net="2" cx="1265" cy="1900" r="7" r1="11" r2="4" stroke-width="7" stroke="#ff9900" fill="#ffffff" opacity="1" layer="MULTILAYER" />
    <circle net="2" cx="1290" cy="1900" r="7" r1="11" r2="4" stroke-width="7" stroke="#ff9900" fill="#ffffff" opacity="1" layer="MULTILAYER" />
    <circle net="2" cx="1315" cy="1900" r="7" r1="11" r2="4" stroke-width="7" stroke="#ff9900" fill="#ffffff" opacity="1" layer="MULTILAYER" />
    <circle net="14" cx="1065" cy="1545" r="7" r1="11" r2="4" stroke-width="7" stroke="#ff9900" fill="#ffffff" opacity="1" layer="MULTILAYER" />
    <circle net="0" cx="1197" cy="1552" r="6" r1="9" r2="3" stroke-width="5" stroke="#ff9900" fill="#ffffff" opacity="1" layer="MULTILAYER" />
    <circle net="0" cx="1276" cy="1552" r="6" r1="9" r2="3" stroke-width="5" stroke="#ff9900" fill="#ffffff" opacity="1" layer="MULTILAYER" />
    <circle net="0" cx="1237" cy="1552" r="6" r1="9" r2="3" stroke-width="5" stroke="#ff9900" fill="#ffffff" opacity="1" layer="MULTILAYER" />
    <circle net="0" cx="1197" cy="1627" r="6" r1="9" r2="3" stroke-width="5" stroke="#ff9900" fill="#ffffff" opacity="1" layer="MULTILAYER" />
    <circle net="0" cx="1276" cy="1627" r="6" r1="9" r2="3" stroke-width="5" stroke="#ff9900" fill="#ffffff" opacity="1" layer="MULTILAYER" />
    <circle net="0" cx="1237" cy="1627" r="6" r1="9" r2="3" stroke-width="5" stroke="#ff9900" fill="#ffffff" opacity="1" layer="MULTILAYER" />
    <circle net="0" cx="1237" cy="1590" r="6" r1="9" r2="3" stroke-width="5" stroke="#ff9900" fill="#ffffff" opacity="1" layer="MULTILAYER" />
    <circle net="0" cx="1276" cy="1590" r="6" r1="9" r2="3" stroke-width="5" stroke="#ff9900" fill="#ffffff" opacity="1" layer="MULTILAYER" />
    <circle net="0" cx="1197" cy="1590" r="6" r1="9" r2="3" stroke-width="5" stroke="#ff9900" fill="#ffffff" opacity="1" layer="MULTILAYER" />
    <circle net="7" cx="1265" cy="1260" r="7" r1="11" r2="4" stroke-width="7" stroke="#ff9900" fill="#ffffff" opacity="1" layer="MULTILAYER" />
    <circle net="7" cx="1155" cy="1260" r="7" r1="11" r2="4" stroke-width="7" stroke="#ff9900" fill="#ffffff" opacity="1" layer="MULTILAYER" />
    <circle net="7" cx="1205" cy="1260" r="7" r1="11" r2="4" stroke-width="7" stroke="#ff9900" fill="#ffffff" opacity="1" layer="MULTILAYER" />
    <circle net="7" cx="1130" cy="1335" r="7" r1="11" r2="4" stroke-width="7" stroke="#ff9900" fill="#ffffff" opacity="1" layer="MULTILAYER" />
    <circle net="7" cx="1130" cy="1260" r="7" r1="11" r2="4" stroke-width="7" stroke="#ff9900" fill="#ffffff" opacity="1" layer="MULTILAYER" />
    <circle net="7" cx="1155" cy="1335" r="7" r1="11" r2="4" stroke-width="7" stroke="#ff9900" fill="#ffffff" opacity="1" layer="MULTILAYER" />
    <circle net="7" cx="1180" cy="1335" r="7" r1="11" r2="4" stroke-width="7" stroke="#ff9900" fill="#ffffff" opacity="1" layer="MULTILAYER" />
    <circle net="7" cx="1205" cy="1335" r="7" r1="11" r2="4" stroke-width="7" stroke="#ff9900" fill="#ffffff" opacity="1" layer="MULTILAYER" />
    <circle net="2" cx="1265" cy="1825" r="7" r1="11" r2="4" stroke-width="7" stroke="#ff9900" fill="#ffffff" opacity="1" layer="MULTILAYER" />
    <circle net="0" cx="1130" cy="1375" r="7" r1="11" r2="4" stroke-width="7" stroke="#ff9900" fill="#ffffff" opacity="1" layer="MULTILAYER" />
    <circle net="0" cx="1265" cy="1375" r="7" r1="11" r2="4" stroke-width="7" stroke="#ff9900" fill="#ffffff" opacity="1" layer="MULTILAYER" />
    <circle net="0" cx="1205" cy="1375" r="7" r1="11" r2="4" stroke-width="7" stroke="#ff9900" fill="#ffffff" opacity="1" layer="MULTILAYER" />
    <circle net="0" cx="750" cy="1250" r="7" r1="11" r2="4" stroke-width="7" stroke="#ff9900" fill="#ffffff" opacity="1" layer="MULTILAYER" />
    <circle net="0" cx="1205" cy="1790" r="7" r1="11" r2="4" stroke-width="7" stroke="#ff9900" fill="#ffffff" opacity="1" layer="MULTILAYER" />
    <circle net="0" cx="1265" cy="1790" r="7" r1="11" r2="4" stroke-width="7" stroke="#ff9900" fill="#ffffff" opacity="1" layer="MULTILAYER" />
    <circle net="0" cx="1130" cy="1790" r="7" r1="11" r2="4" stroke-width="7" stroke="#ff9900" fill="#ffffff" opacity="1" layer="MULTILAYER" />
    <circle net="0" cx="1340" cy="1790" r="7" r1="11" r2="4" stroke-width="7" stroke="#ff9900" fill="#ffffff" opacity="1" layer="MULTILAYER" />
    <circle net="15" cx="800" cy="1635" r="58.8" r1="68" r2="49" stroke-width="19" stroke="#ff9900" fill="#ffffff" opacity="1" layer="MULTILAYER" />
    <circle net="0" cx="1625" cy="305" r="58.8" r1="68" r2="49" stroke-width="19" stroke="#ff9900" fill="#ffffff" opacity="1" layer="MULTILAYER" />
    <circle net="7" cx="1360" cy="305" r="58.8" r1="68" r2="49" stroke-width="19" stroke="#ff9900" fill="#ffffff" opacity="1" layer="MULTILAYER" />
    <circle net="2" cx="1335" cy="2930" r="58.8" r1="68" r2="49" stroke-width="19" stroke="#ff9900" fill="#ffffff" opacity="1" layer="MULTILAYER" />
    <circle net="0" cx="1625" cy="2930" r="58.8" r1="68" r2="49" stroke-width="19" stroke="#ff9900" fill="#ffffff" opacity="1" layer="MULTILAYER" />
  </g>
</svg>

