<?xml version="1.0" encoding="UTF-8"?>
<!DOCTYPE svg PUBLIC "-//W3C//DTD SVG 1.1//EN" "http://www.w3.org/Graphics/SVG/1.1/DTD/svg11.dtd">

<svg xmlns="http://www.w3.org/2000/svg" xmlns:xlink="http://www.w3.org/1999/xlink" width="254px" height="330px" viewbox="0 0 254 330" version="1.1">
  <title>TPSM53604_BUCK_RDA_A_mid1: null</title>
  <desc>TPSM53604_BUCK_RDA_A WebTHERM&amp;reg; Board Layout file</desc>
  <g id="board" fill-opacity="1" transform="scale(0.1016,-0.1016) translate(0,-3250.0)">
    <rect x="0" y="0" width="2500" height="3250" stroke="#006600" stroke-width="0" fill="#006600" type="Fill" layer="PCB" />
    <polygon net="0" points="2479,25 1475,25 1475,215 1475,215 1475,216 1475,217 1475,242 1475,243 1475,244 1475,244 1475,255 1475,255 1475,256 1475,257 1475,292 1475,293 1475,294 1475,294 1475,305 1475,305 1475,306 1475,307 1475,342 1475,343 1475,344 1475,344 1475,355 1475,355 1475,356 1475,357 1475,392 1475,393 1475,394 1475,394 1475,405 1475,405 1475,406 1475,407 1475,442 1475,443 1475,444 1475,444 1475,455 1475,455 1475,456 1475,457 1475,492 1475,493 1475,494 1475,494 1475,505 1475,505 1475,506 1475,507 1475,542 1475,543 1475,544 1475,544 1475,555 1475,555 1475,556 1475,557 1475,592 1475,593 1475,594 1475,594 1475,605 1475,605 1475,606 1475,607 1475,642 1475,643 1475,644 1475,644 1475,655 1475,655 1475,656 1475,657 1475,692 1475,693 1475,694 1475,694 1475,705 1475,705 1475,706 1475,707 1475,742 1475,743 1475,744 1475,744 1475,755 1475,755 1475,756 1475,757 1475,792 1475,793 1475,794 1475,794 1475,805 1475,805 1475,806 1475,807 1475,842 1475,843 1475,844 1475,844 1475,855 1475,855 1475,856 1475,857 1475,892 1475,893 1475,894 1475,894 1475,905 1475,905 1475,906 1475,907 1475,942 1475,943 1475,944 1475,944 1475,955 1475,955 1475,956 1475,957 1475,992 1475,993 1475,994 1475,994 1475,1005 1475,1005 1475,1006 1475,1007 1475,1042 1475,1043 1475,1044 1475,1044 1475,1055 1475,1055 1475,1056 1475,1057 1475,1092 1475,1093 1475,1094 1475,1094 1475,1105 1475,1105 1475,1106 1475,1107 1475,1142 1475,1143 1475,1144 1475,1144 1475,1155 1475,1155 1475,1156 1475,1157 1475,1192 1475,1193 1475,1194 1475,1194 1475,1205 1475,1205 1475,1206 1475,1207 1475,1242 1475,1243 1475,1244 1475,1244 1475,1255 1475,1255 1475,1256 1475,1257 1475,1292 1475,1293 1475,1294 1475,1294 1475,1305 1475,1305 1475,1306 1475,1307 1475,1332 1475,1333 1475,1334 1475,1334 1475,1345 1475,1345 1475,1346 1475,1347 1475,1392 1475,1393 1475,1394 1475,1394 1475,1405 1475,1405 1475,1406 1475,1407 1475,1515 1475,1515 1475,1525 1465,1525 1465,1525 1401,1525 1396,1525 1395,1525 1393,1525 1390,1530 1383,1534 1375,1536 1366,1534 1359,1530 1356,1525 1354,1525 1353,1525 1285,1525 1284,1525 1275,1525 1275,1515 1274,1515 1274,1465 1275,1464 1275,1455 1284,1455 1285,1454 1369,1454 1369,1360 1090,1360 1090,1454 1186,1454 1187,1455 1200,1455 1200,1467 1200,1468 1200,1515 1200,1515 1200,1525 1190,1525 1190,1525 1082,1525 1080,1528 1080,1530 1084,1536 1086,1545 1084,1553 1080,1560 1073,1564 1065,1566 1056,1564 1049,1560 1045,1553 1043,1545 1045,1536 1049,1530 1049,1528 1047,1525 1020,1525 1019,1525 1010,1525 1010,1515 1009,1515 1009,1507 1010,1506 1010,1506 1010,1494 1010,1493 1009,1492 1009,1457 1010,1456 1010,1456 1010,1444 1010,1443 1009,1442 1009,1407 1010,1406 1010,1406 1010,1394 1010,1393 1009,1392 1009,1357 1010,1356 1010,1356 1010,1344 1010,1343 1009,1342 1009,1307 1010,1306 1010,1306 1010,1294 1010,1293 1009,1292 1009,1257 1010,1256 1010,1256 1010,1244 1010,1243 1009,1242 1009,1227 1010,1226 1010,1226 1010,1214 1010,1213 1009,1212 1009,1157 1010,1156 1010,1156 1010,1144 1010,1143 1009,1142 1009,1107 1010,1106 1010,1106 1010,1094 1010,1093 1009,1092 1009,1057 1010,1056 1010,1056 1010,1044 1010,1043 1009,1042 1009,1007 1010,1006 1010,1006 1010,994 1010,993 1009,992 1009,957 1010,956 1010,956 1010,944 1010,943 1009,942 1009,907 1010,906 1010,906 1010,894 1010,893 1009,892 1009,857 1010,856 1010,856 1010,844 1010,843 1009,842 1009,807 1010,806 1010,806 1010,794 1010,793 1009,792 1009,757 1010,756 1010,756 1010,744 1010,743 1009,742 1009,707 1010,706 1010,706 1010,694 1010,693 1009,692 1009,657 1010,656 1010,656 1010,644 1010,643 1009,642 1009,607 1010,606 1010,606 1010,594 1010,593 1009,592 1009,557 1010,556 1010,556 1010,545 1019,545 1020,544 1042,544 1043,545 1056,545 1057,544 1092,544 1093,545 1105,545 1105,545 1106,545 1107,544 1137,544 1138,545 1139,545 1139,545 1150,545 1150,545 1151,545 1152,544 1189,544 1189,205 1190,204 1190,195 1199,195 1200,194 1242,194 1243,195 1256,195 1257,194 1292,194 1293,195 1306,195 1307,194 1342,194 1343,195 1356,195 1357,194 1392,194 1393,195 1406,195 1407,194 1437,194 1438,195 1451,195 1452,194 1458,194 1459,195 1470,195 1470,25 25,25 25,3225 1470,3225 1470,3045 1459,3045 1458,3045 1447,3045 1446,3045 1433,3045 1432,3045 1407,3045 1406,3045 1393,3045 1392,3045 1357,3045 1356,3045 1343,3045 1342,3045 1307,3045 1306,3045 1293,3045 1292,3045 1257,3045 1256,3045 1243,3045 1242,3045 1200,3045 1199,3045 1190,3045 1190,3035 1189,3035 1189,2760 1107,2760 1106,2760 1093,2760 1092,2760 1057,2760 1056,2760 1043,2760 1042,2760 1021,2760 1020,2760 1010,2760 1010,2743 1009,2742 1009,2707 1010,2706 1010,2693 1009,2692 1009,2657 1010,2656 1010,2643 1009,2642 1009,2607 1010,2606 1010,2593 1009,2592 1009,2557 1010,2556 1010,2543 1009,2542 1009,2507 1010,2506 1010,2493 1009,2492 1009,2457 1010,2456 1010,2443 1009,2442 1009,2407 1010,2406 1010,2393 1009,2392 1009,2357 1010,2356 1010,2343 1009,2342 1009,2307 1010,2306 1010,2293 1009,2292 1009,2257 1010,2256 1010,2243 1009,2242 1009,2207 1010,2206 1010,2193 1009,2192 1009,2157 1010,2156 1010,2143 1009,2142 1009,2107 1010,2106 1010,2093 1009,2092 1009,2057 1010,2056 1010,2043 1009,2042 1009,2007 1010,2006 1010,1993 1009,1992 1009,1957 1010,1956 1010,1943 1009,1942 1009,1907 1010,1906 1010,1893 1009,1892 1009,1857 1010,1856 1010,1843 1009,1842 1009,1807 1010,1806 1010,1793 1009,1792 1009,1660 1010,1659 1010,1650 1019,1650 1020,1649 1093,1649 1095,1645 1095,1644 1093,1636 1095,1628 1099,1621 1106,1616 1115,1614 1123,1616 1130,1621 1134,1628 1136,1636 1134,1644 1134,1645 1136,1649 1185,1649 1185,1650 1195,1650 1195,1659 1195,1660 1195,1695 1195,1695 1195,1705 1185,1705 1185,1705 1095,1705 1095,1799 1122,1799 1123,1800 1124,1800 1135,1800 1136,1800 1137,1799 1197,1799 1198,1800 1199,1800 1210,1800 1210,1800 1211,1800 1212,1799 1257,1799 1258,1800 1259,1800 1259,1800 1270,1800 1270,1800 1271,1800 1272,1799 1332,1799 1333,1800 1334,1800 1334,1800 1345,1800 1345,1800 1346,1800 1347,1799 1374,1799 1374,1705 1288,1705 1287,1705 1275,1705 1275,1692 1274,1691 1274,1660 1275,1659 1275,1650 1284,1650 1285,1649 1353,1649 1355,1645 1355,1644 1353,1636 1355,1628 1359,1621 1366,1616 1375,1614 1383,1616 1390,1621 1394,1628 1396,1636 1394,1644 1394,1645 1396,1649 1465,1649 1465,1650 1475,1650 1475,1659 1475,1660 1475,1692 1475,1693 1475,1706 1475,1707 1475,1742 1475,1743 1475,1756 1475,1757 1475,1777 1475,1778 1475,1791 1475,1792 1475,1842 1475,1843 1475,1856 1475,1857 1475,1892 1475,1893 1475,1906 1475,1907 1475,1942 1475,1943 1475,1956 1475,1957 1475,1992 1475,1993 1475,2006 1475,2007 1475,2042 1475,2043 1475,2056 1475,2057 1475,2092 1475,2093 1475,2106 1475,2107 1475,2142 1475,2143 1475,2156 1475,2157 1475,2192 1475,2193 1475,2206 1475,2207 1475,2242 1475,2243 1475,2256 1475,2257 1475,2292 1475,2293 1475,2306 1475,2307 1475,2342 1475,2343 1475,2356 1475,2357 1475,2392 1475,2393 1475,2406 1475,2407 1475,2442 1475,2443 1475,2456 1475,2457 1475,2492 1475,2493 1475,2506 1475,2507 1475,2542 1475,2543 1475,2556 1475,2557 1475,2592 1475,2593 1475,2606 1475,2607 1475,2642 1475,2643 1475,2656 1475,2657 1475,2692 1475,2693 1475,2706 1475,2707 1475,2742 1475,2743 1475,2756 1475,2757 1475,2792 1475,2793 1475,2806 1475,2807 1475,2842 1475,2843 1475,2856 1475,2857 1475,2892 1475,2893 1475,2906 1475,2907 1475,2942 1475,2943 1475,2956 1475,2957 1475,2992 1475,2993 1475,3006 1475,3007 1475,3027 1475,3028 1475,3225 2479,3225" stroke-width="0.0" stroke="#ff9900" fill="#ff9900" stroke-linecap="round" stroke-linejoin="round" opacity="1.0" layer="MID1" />
    <polygon net="0" points="800,1714 784,1712 769,1708 755,1700 743,1691 734,1679 726,1665 722,1650 720,1635 722,1619 726,1604 734,1590 743,1578 755,1569 769,1561 784,1557 800,1555 815,1557 830,1561 844,1569 856,1578 865,1590 873,1604 877,1619 879,1635 877,1650 873,1665 865,1679 856,1691 844,1700 830,1708 815,1712" stroke-width="0.0" stroke="#006600" fill="#006600" stroke-linecap="round" stroke-linejoin="round" opacity="1.0" layer="MID1" />
    <polygon net="0" points="910,1326 901,1324 894,1320 890,1313 888,1305 890,1296 894,1289 901,1285 910,1283 918,1285 925,1289 929,1296 931,1305 929,1313 925,1320 918,1324" stroke-width="0.0" stroke="#006600" fill="#006600" stroke-linecap="round" stroke-linejoin="round" opacity="1.0" layer="MID1" />
    <polygon net="7" points="1465,1407 1463,1400 1465,1392 1465,1347 1463,1340 1465,1332 1465,1307 1463,1300 1465,1292 1465,1257 1463,1250 1465,1242 1465,1207 1463,1200 1465,1192 1465,1157 1463,1150 1465,1142 1465,1107 1463,1100 1465,1092 1465,1057 1463,1050 1465,1042 1465,1007 1463,1000 1465,992 1465,957 1463,950 1465,942 1465,907 1463,900 1465,892 1465,857 1463,850 1465,842 1465,807 1463,800 1465,792 1465,757 1463,750 1465,742 1465,707 1463,700 1465,692 1465,657 1463,650 1465,642 1465,607 1463,600 1465,592 1465,557 1463,550 1465,542 1465,507 1463,500 1465,492 1465,457 1463,450 1465,442 1465,407 1463,400 1465,392 1465,357 1463,350 1465,342 1465,307 1463,300 1465,292 1465,257 1463,250 1465,242 1465,217 1463,210 1463,209 1460,205 1460,205 1458,205 1452,205 1445,206 1437,205 1407,205 1400,206 1392,205 1357,205 1350,206 1342,205 1307,205 1300,206 1292,205 1257,205 1250,206 1242,205 1200,205 1200,555 1152,555 1145,556 1137,555 1107,555 1100,556 1092,555 1057,555 1050,556 1042,555 1020,555 1020,557 1020,592 1021,600 1020,607 1020,642 1021,650 1020,657 1020,692 1021,700 1020,707 1020,742 1021,750 1020,757 1020,792 1021,800 1020,807 1020,842 1021,850 1020,857 1020,892 1021,900 1020,907 1020,942 1021,950 1020,957 1020,992 1021,1000 1020,1007 1020,1042 1021,1050 1020,1057 1020,1092 1021,1100 1020,1107 1020,1142 1021,1150 1020,1157 1020,1212 1021,1220 1020,1227 1020,1242 1021,1250 1020,1257 1020,1292 1021,1300 1020,1307 1020,1342 1021,1350 1020,1357 1020,1392 1021,1400 1020,1407 1020,1442 1021,1450 1020,1457 1020,1492 1021,1500 1020,1507 1020,1515 1190,1515 1190,1468 1186,1465 1080,1465 1080,1350 1380,1350 1380,1465 1285,1465 1285,1515 1353,1515 1355,1506 1359,1499 1366,1495 1375,1493 1383,1495 1390,1499 1394,1506 1396,1515 1401,1515 1465,1515" stroke-width="0.0" stroke="#ff9900" fill="#ff9900" stroke-linecap="round" stroke-linejoin="round" opacity="1.0" layer="MID1" />
    <polygon net="2" points="1460,3034 1463,3034 1465,3027 1465,3007 1463,3000 1465,2992 1465,2957 1463,2950 1465,2942 1465,2907 1463,2900 1465,2892 1465,2857 1463,2850 1465,2842 1465,2807 1463,2800 1465,2792 1465,2757 1463,2750 1465,2742 1465,2707 1463,2700 1465,2692 1465,2657 1463,2650 1465,2642 1465,2607 1463,2600 1465,2592 1465,2557 1463,2550 1465,2542 1465,2507 1463,2500 1465,2492 1465,2457 1463,2450 1465,2442 1465,2407 1463,2400 1465,2392 1465,2357 1463,2350 1465,2342 1465,2307 1463,2300 1465,2292 1465,2257 1463,2250 1465,2242 1465,2207 1463,2200 1465,2192 1465,2157 1463,2150 1465,2142 1465,2107 1463,2100 1465,2092 1465,2057 1463,2050 1465,2042 1465,2007 1463,2000 1465,1992 1465,1957 1463,1950 1465,1942 1465,1907 1463,1900 1465,1892 1465,1857 1463,1850 1465,1842 1465,1792 1463,1785 1465,1777 1465,1757 1463,1750 1465,1742 1465,1707 1463,1700 1465,1692 1465,1660 1285,1660 1285,1691 1288,1695 1385,1695 1385,1810 1347,1810 1340,1811 1332,1810 1272,1810 1265,1811 1257,1810 1212,1810 1205,1811 1197,1810 1137,1810 1130,1811 1122,1810 1085,1810 1085,1695 1185,1695 1185,1660 1020,1660 1020,1792 1021,1800 1020,1807 1020,1842 1021,1850 1020,1857 1020,1892 1021,1900 1020,1907 1020,1942 1021,1950 1020,1957 1020,1992 1021,2000 1020,2007 1020,2042 1021,2050 1020,2057 1020,2092 1021,2100 1020,2107 1020,2142 1021,2150 1020,2157 1020,2192 1021,2200 1020,2207 1020,2242 1021,2250 1020,2257 1020,2292 1021,2300 1020,2307 1020,2342 1021,2350 1020,2357 1020,2392 1021,2400 1020,2407 1020,2442 1021,2450 1020,2457 1020,2492 1021,2500 1020,2507 1020,2542 1021,2550 1020,2557 1020,2592 1021,2600 1020,2607 1020,2642 1021,2650 1020,2657 1020,2692 1021,2700 1020,2707 1020,2742 1021,2750 1042,2750 1050,2748 1057,2750 1092,2750 1100,2748 1107,2750 1200,2750 1200,3035 1242,3035 1250,3033 1257,3035 1292,3035 1300,3033 1307,3035 1342,3035 1350,3033 1357,3035 1392,3035 1400,3033 1407,3035 1432,3035 1440,3033 1447,3035 1458,3035" stroke-width="0.0" stroke="#ff9900" fill="#ff9900" stroke-linecap="round" stroke-linejoin="round" opacity="1.0" layer="MID1" />
    <line net="0" x1="1472" y1="30" x2="1485" y2="30" stroke-width="10" stroke="#ff9900" stroke-linecap="round" stroke-linejoin="round" opacity="1.0" layer="MID1" />
    <line net="0" x1="1460" y1="30" x2="1472" y2="30" stroke-width="10" stroke="#ff9900" stroke-linecap="round" stroke-linejoin="round" opacity="1.0" layer="MID1" />
    <line net="0" x1="1472" y1="190" x2="1485" y2="190" stroke-width="10" stroke="#ff9900" stroke-linecap="round" stroke-linejoin="round" opacity="1.0" layer="MID1" />
    <line net="0" x1="1460" y1="190" x2="1472" y2="190" stroke-width="10" stroke="#ff9900" stroke-linecap="round" stroke-linejoin="round" opacity="1.0" layer="MID1" />
    <line net="0" x1="1472" y1="30" x2="1472" y2="190" stroke-width="10" stroke="#ff9900" stroke-linecap="round" stroke-linejoin="round" opacity="1.0" layer="MID1" />
    <line net="0" x1="1472" y1="3050" x2="1472" y2="3220" stroke-width="10" stroke="#ff9900" stroke-linecap="round" stroke-linejoin="round" opacity="1.0" layer="MID1" />
    <line net="0" x1="1460" y1="3050" x2="1472" y2="3050" stroke-width="10" stroke="#ff9900" stroke-linecap="round" stroke-linejoin="round" opacity="1.0" layer="MID1" />
    <line net="0" x1="1472" y1="3050" x2="1485" y2="3050" stroke-width="10" stroke="#ff9900" stroke-linecap="round" stroke-linejoin="round" opacity="1.0" layer="MID1" />
    <line net="0" x1="1460" y1="3220" x2="1472" y2="3220" stroke-width="10" stroke="#ff9900" stroke-linecap="round" stroke-linejoin="round" opacity="1.0" layer="MID1" />
    <line net="0" x1="1472" y1="3220" x2="1485" y2="3220" stroke-width="10" stroke="#ff9900" stroke-linecap="round" stroke-linejoin="round" opacity="1.0" layer="MID1" />
    <line net="7" x1="1180" y1="715" x2="1180" y2="1260" stroke-width="10" stroke="#ff9900" stroke-linecap="round" stroke-linejoin="round" opacity="1.0" layer="MID1" />
    <line net="7" x1="1180" y1="715" x2="1360" y2="535" stroke-width="10" stroke="#ff9900" stroke-linecap="round" stroke-linejoin="round" opacity="1.0" layer="MID1" />
    <line net="7" x1="1360" y1="305" x2="1360" y2="535" stroke-width="10" stroke="#ff9900" stroke-linecap="round" stroke-linejoin="round" opacity="1.0" layer="MID1" />
    <line net="2" x1="1165" y1="1862" x2="1165" y2="1885" stroke-width="10" stroke="#ff9900" stroke-linecap="round" stroke-linejoin="round" opacity="1.0" layer="MID1" />
    <line net="2" x1="1165" y1="1885" x2="1180" y2="1900" stroke-width="10" stroke="#ff9900" stroke-linecap="round" stroke-linejoin="round" opacity="1.0" layer="MID1" />
    <line net="2" x1="1180" y1="1900" x2="1180" y2="2620" stroke-width="10" stroke="#ff9900" stroke-linecap="round" stroke-linejoin="round" opacity="1.0" layer="MID1" />
    <line net="2" x1="1180" y1="2620" x2="1335" y2="2775" stroke-width="10" stroke="#ff9900" stroke-linecap="round" stroke-linejoin="round" opacity="1.0" layer="MID1" />
    <line net="2" x1="1335" y1="2775" x2="1335" y2="2930" stroke-width="10" stroke="#ff9900" stroke-linecap="round" stroke-linejoin="round" opacity="1.0" layer="MID1" />
    <line net="0" x1="1276" y1="1590" x2="1625" y2="1590" stroke-width="10" stroke="#ff9900" stroke-linecap="round" stroke-linejoin="round" opacity="1.0" layer="MID1" />
    <line net="0" x1="1625" y1="305" x2="1625" y2="1590" stroke-width="10" stroke="#ff9900" stroke-linecap="round" stroke-linejoin="round" opacity="1.0" layer="MID1" />
    <line net="0" x1="1625" y1="1590" x2="1625" y2="2930" stroke-width="10" stroke="#ff9900" stroke-linecap="round" stroke-linejoin="round" opacity="1.0" layer="MID1" />
    <circle net="0" cx="1440" cy="185" r="7" r1="11" r2="4" stroke-width="7" stroke="#ff9900" fill="#ffffff" opacity="1" layer="MULTILAYER" />
    <circle net="0" cx="1050" cy="535" r="7" r1="11" r2="4" stroke-width="7" stroke="#ff9900" fill="#ffffff" opacity="1" layer="MULTILAYER" />
    <circle net="0" cx="1100" cy="535" r="7" r1="11" r2="4" stroke-width="7" stroke="#ff9900" fill="#ffffff" opacity="1" layer="MULTILAYER" />
    <circle net="0" cx="1145" cy="535" r="7" r1="11" r2="4" stroke-width="7" stroke="#ff9900" fill="#ffffff" opacity="1" layer="MULTILAYER" />
    <circle net="0" cx="1250" cy="3055" r="7" r1="11" r2="4" stroke-width="7" stroke="#ff9900" fill="#ffffff" opacity="1" layer="MULTILAYER" />
    <circle net="0" cx="1300" cy="3055" r="7" r1="11" r2="4" stroke-width="7" stroke="#ff9900" fill="#ffffff" opacity="1" layer="MULTILAYER" />
    <circle net="0" cx="1350" cy="3055" r="7" r1="11" r2="4" stroke-width="7" stroke="#ff9900" fill="#ffffff" opacity="1" layer="MULTILAYER" />
    <circle net="0" cx="1400" cy="3055" r="7" r1="11" r2="4" stroke-width="7" stroke="#ff9900" fill="#ffffff" opacity="1" layer="MULTILAYER" />
    <circle net="0" cx="1440" cy="3055" r="7" r1="11" r2="4" stroke-width="7" stroke="#ff9900" fill="#ffffff" opacity="1" layer="MULTILAYER" />
    <circle net="0" cx="1485" cy="3035" r="7" r1="11" r2="4" stroke-width="7" stroke="#ff9900" fill="#ffffff" opacity="1" layer="MULTILAYER" />
    <circle net="0" cx="1250" cy="185" r="7" r1="11" r2="4" stroke-width="7" stroke="#ff9900" fill="#ffffff" opacity="1" layer="MULTILAYER" />
    <circle net="0" cx="1300" cy="185" r="7" r1="11" r2="4" stroke-width="7" stroke="#ff9900" fill="#ffffff" opacity="1" layer="MULTILAYER" />
    <circle net="0" cx="1350" cy="185" r="7" r1="11" r2="4" stroke-width="7" stroke="#ff9900" fill="#ffffff" opacity="1" layer="MULTILAYER" />
    <circle net="0" cx="1400" cy="185" r="7" r1="11" r2="4" stroke-width="7" stroke="#ff9900" fill="#ffffff" opacity="1" layer="MULTILAYER" />
    <circle net="0" cx="1485" cy="210" r="7" r1="11" r2="4" stroke-width="7" stroke="#ff9900" fill="#ffffff" opacity="1" layer="MULTILAYER" />
    <circle net="0" cx="1050" cy="2770" r="7" r1="11" r2="4" stroke-width="7" stroke="#ff9900" fill="#ffffff" opacity="1" layer="MULTILAYER" />
    <circle net="0" cx="1100" cy="2770" r="7" r1="11" r2="4" stroke-width="7" stroke="#ff9900" fill="#ffffff" opacity="1" layer="MULTILAYER" />
    <circle net="0" cx="1175" cy="2900" r="7" r1="11" r2="4" stroke-width="7" stroke="#ff9900" fill="#ffffff" opacity="1" layer="MULTILAYER" />
    <circle net="0" cx="1175" cy="2950" r="7" r1="11" r2="4" stroke-width="7" stroke="#ff9900" fill="#ffffff" opacity="1" layer="MULTILAYER" />
    <circle net="0" cx="1175" cy="3000" r="7" r1="11" r2="4" stroke-width="7" stroke="#ff9900" fill="#ffffff" opacity="1" layer="MULTILAYER" />
    <circle net="0" cx="1175" cy="3050" r="7" r1="11" r2="4" stroke-width="7" stroke="#ff9900" fill="#ffffff" opacity="1" layer="MULTILAYER" />
    <circle net="0" cx="1175" cy="2850" r="7" r1="11" r2="4" stroke-width="7" stroke="#ff9900" fill="#ffffff" opacity="1" layer="MULTILAYER" />
    <circle net="0" cx="1175" cy="2800" r="7" r1="11" r2="4" stroke-width="7" stroke="#ff9900" fill="#ffffff" opacity="1" layer="MULTILAYER" />
    <circle net="0" cx="1140" cy="2775" r="7" r1="11" r2="4" stroke-width="7" stroke="#ff9900" fill="#ffffff" opacity="1" layer="MULTILAYER" />
    <circle net="0" cx="1000" cy="2750" r="7" r1="11" r2="4" stroke-width="7" stroke="#ff9900" fill="#ffffff" opacity="1" layer="MULTILAYER" />
    <circle net="0" cx="1000" cy="2700" r="7" r1="11" r2="4" stroke-width="7" stroke="#ff9900" fill="#ffffff" opacity="1" layer="MULTILAYER" />
    <circle net="0" cx="1000" cy="2650" r="7" r1="11" r2="4" stroke-width="7" stroke="#ff9900" fill="#ffffff" opacity="1" layer="MULTILAYER" />
    <circle net="0" cx="1000" cy="2600" r="7" r1="11" r2="4" stroke-width="7" stroke="#ff9900" fill="#ffffff" opacity="1" layer="MULTILAYER" />
    <circle net="0" cx="1000" cy="2550" r="7" r1="11" r2="4" stroke-width="7" stroke="#ff9900" fill="#ffffff" opacity="1" layer="MULTILAYER" />
    <circle net="0" cx="1000" cy="2500" r="7" r1="11" r2="4" stroke-width="7" stroke="#ff9900" fill="#ffffff" opacity="1" layer="MULTILAYER" />
    <circle net="0" cx="1000" cy="2450" r="7" r1="11" r2="4" stroke-width="7" stroke="#ff9900" fill="#ffffff" opacity="1" layer="MULTILAYER" />
    <circle net="0" cx="1000" cy="2400" r="7" r1="11" r2="4" stroke-width="7" stroke="#ff9900" fill="#ffffff" opacity="1" layer="MULTILAYER" />
    <circle net="0" cx="1000" cy="2350" r="7" r1="11" r2="4" stroke-width="7" stroke="#ff9900" fill="#ffffff" opacity="1" layer="MULTILAYER" />
    <circle net="0" cx="1000" cy="2300" r="7" r1="11" r2="4" stroke-width="7" stroke="#ff9900" fill="#ffffff" opacity="1" layer="MULTILAYER" />
    <circle net="0" cx="1000" cy="2250" r="7" r1="11" r2="4" stroke-width="7" stroke="#ff9900" fill="#ffffff" opacity="1" layer="MULTILAYER" />
    <circle net="0" cx="1000" cy="2200" r="7" r1="11" r2="4" stroke-width="7" stroke="#ff9900" fill="#ffffff" opacity="1" layer="MULTILAYER" />
    <circle net="0" cx="1000" cy="2150" r="7" r1="11" r2="4" stroke-width="7" stroke="#ff9900" fill="#ffffff" opacity="1" layer="MULTILAYER" />
    <circle net="0" cx="1000" cy="2100" r="7" r1="11" r2="4" stroke-width="7" stroke="#ff9900" fill="#ffffff" opacity="1" layer="MULTILAYER" />
    <circle net="0" cx="1000" cy="2050" r="7" r1="11" r2="4" stroke-width="7" stroke="#ff9900" fill="#ffffff" opacity="1" layer="MULTILAYER" />
    <circle net="0" cx="1000" cy="2000" r="7" r1="11" r2="4" stroke-width="7" stroke="#ff9900" fill="#ffffff" opacity="1" layer="MULTILAYER" />
    <circle net="0" cx="1000" cy="1950" r="7" r1="11" r2="4" stroke-width="7" stroke="#ff9900" fill="#ffffff" opacity="1" layer="MULTILAYER" />
    <circle net="0" cx="1000" cy="1900" r="7" r1="11" r2="4" stroke-width="7" stroke="#ff9900" fill="#ffffff" opacity="1" layer="MULTILAYER" />
    <circle net="0" cx="1000" cy="1850" r="7" r1="11" r2="4" stroke-width="7" stroke="#ff9900" fill="#ffffff" opacity="1" layer="MULTILAYER" />
    <circle net="0" cx="1000" cy="1800" r="7" r1="11" r2="4" stroke-width="7" stroke="#ff9900" fill="#ffffff" opacity="1" layer="MULTILAYER" />
    <circle net="0" cx="1000" cy="1350" r="7" r1="11" r2="4" stroke-width="7" stroke="#ff9900" fill="#ffffff" opacity="1" layer="MULTILAYER" />
    <circle net="0" cx="1000" cy="1400" r="7" r1="11" r2="4" stroke-width="7" stroke="#ff9900" fill="#ffffff" opacity="1" layer="MULTILAYER" />
    <circle net="0" cx="1000" cy="1450" r="7" r1="11" r2="4" stroke-width="7" stroke="#ff9900" fill="#ffffff" opacity="1" layer="MULTILAYER" />
    <circle net="0" cx="1000" cy="1500" r="7" r1="11" r2="4" stroke-width="7" stroke="#ff9900" fill="#ffffff" opacity="1" layer="MULTILAYER" />
    <circle net="0" cx="1000" cy="1300" r="7" r1="11" r2="4" stroke-width="7" stroke="#ff9900" fill="#ffffff" opacity="1" layer="MULTILAYER" />
    <circle net="0" cx="1000" cy="1250" r="7" r1="11" r2="4" stroke-width="7" stroke="#ff9900" fill="#ffffff" opacity="1" layer="MULTILAYER" />
    <circle net="0" cx="1000" cy="1220" r="7" r1="11" r2="4" stroke-width="7" stroke="#ff9900" fill="#ffffff" opacity="1" layer="MULTILAYER" />
    <circle net="0" cx="1000" cy="1150" r="7" r1="11" r2="4" stroke-width="7" stroke="#ff9900" fill="#ffffff" opacity="1" layer="MULTILAYER" />
    <circle net="0" cx="1000" cy="1100" r="7" r1="11" r2="4" stroke-width="7" stroke="#ff9900" fill="#ffffff" opacity="1" layer="MULTILAYER" />
    <circle net="0" cx="1000" cy="1050" r="7" r1="11" r2="4" stroke-width="7" stroke="#ff9900" fill="#ffffff" opacity="1" layer="MULTILAYER" />
    <circle net="0" cx="1000" cy="1000" r="7" r1="11" r2="4" stroke-width="7" stroke="#ff9900" fill="#ffffff" opacity="1" layer="MULTILAYER" />
    <circle net="0" cx="1000" cy="950" r="7" r1="11" r2="4" stroke-width="7" stroke="#ff9900" fill="#ffffff" opacity="1" layer="MULTILAYER" />
    <circle net="0" cx="1000" cy="900" r="7" r1="11" r2="4" stroke-width="7" stroke="#ff9900" fill="#ffffff" opacity="1" layer="MULTILAYER" />
    <circle net="0" cx="1000" cy="850" r="7" r1="11" r2="4" stroke-width="7" stroke="#ff9900" fill="#ffffff" opacity="1" layer="MULTILAYER" />
    <circle net="0" cx="1000" cy="800" r="7" r1="11" r2="4" stroke-width="7" stroke="#ff9900" fill="#ffffff" opacity="1" layer="MULTILAYER" />
    <circle net="0" cx="1000" cy="750" r="7" r1="11" r2="4" stroke-width="7" stroke="#ff9900" fill="#ffffff" opacity="1" layer="MULTILAYER" />
    <circle net="0" cx="1000" cy="700" r="7" r1="11" r2="4" stroke-width="7" stroke="#ff9900" fill="#ffffff" opacity="1" layer="MULTILAYER" />
    <circle net="0" cx="1000" cy="650" r="7" r1="11" r2="4" stroke-width="7" stroke="#ff9900" fill="#ffffff" opacity="1" layer="MULTILAYER" />
    <circle net="0" cx="1000" cy="600" r="7" r1="11" r2="4" stroke-width="7" stroke="#ff9900" fill="#ffffff" opacity="1" layer="MULTILAYER" />
    <circle net="0" cx="1000" cy="550" r="7" r1="11" r2="4" stroke-width="7" stroke="#ff9900" fill="#ffffff" opacity="1" layer="MULTILAYER" />
    <circle net="0" cx="1175" cy="500" r="7" r1="11" r2="4" stroke-width="7" stroke="#ff9900" fill="#ffffff" opacity="1" layer="MULTILAYER" />
    <circle net="0" cx="1175" cy="450" r="7" r1="11" r2="4" stroke-width="7" stroke="#ff9900" fill="#ffffff" opacity="1" layer="MULTILAYER" />
    <circle net="0" cx="1175" cy="400" r="7" r1="11" r2="4" stroke-width="7" stroke="#ff9900" fill="#ffffff" opacity="1" layer="MULTILAYER" />
    <circle net="0" cx="1175" cy="350" r="7" r1="11" r2="4" stroke-width="7" stroke="#ff9900" fill="#ffffff" opacity="1" layer="MULTILAYER" />
    <circle net="0" cx="1175" cy="300" r="7" r1="11" r2="4" stroke-width="7" stroke="#ff9900" fill="#ffffff" opacity="1" layer="MULTILAYER" />
    <circle net="0" cx="1175" cy="250" r="7" r1="11" r2="4" stroke-width="7" stroke="#ff9900" fill="#ffffff" opacity="1" layer="MULTILAYER" />
    <circle net="0" cx="1175" cy="200" r="7" r1="11" r2="4" stroke-width="7" stroke="#ff9900" fill="#ffffff" opacity="1" layer="MULTILAYER" />
    <circle net="0" cx="1485" cy="1250" r="7" r1="11" r2="4" stroke-width="7" stroke="#ff9900" fill="#ffffff" opacity="1" layer="MULTILAYER" />
    <circle net="0" cx="1485" cy="1300" r="7" r1="11" r2="4" stroke-width="7" stroke="#ff9900" fill="#ffffff" opacity="1" layer="MULTILAYER" />
    <circle net="0" cx="1485" cy="1340" r="7" r1="11" r2="4" stroke-width="7" stroke="#ff9900" fill="#ffffff" opacity="1" layer="MULTILAYER" />
    <circle net="0" cx="1485" cy="1400" r="7" r1="11" r2="4" stroke-width="7" stroke="#ff9900" fill="#ffffff" opacity="1" layer="MULTILAYER" />
    <circle net="0" cx="1485" cy="1200" r="7" r1="11" r2="4" stroke-width="7" stroke="#ff9900" fill="#ffffff" opacity="1" layer="MULTILAYER" />
    <circle net="0" cx="1485" cy="1150" r="7" r1="11" r2="4" stroke-width="7" stroke="#ff9900" fill="#ffffff" opacity="1" layer="MULTILAYER" />
    <circle net="0" cx="1485" cy="1100" r="7" r1="11" r2="4" stroke-width="7" stroke="#ff9900" fill="#ffffff" opacity="1" layer="MULTILAYER" />
    <circle net="0" cx="1485" cy="1050" r="7" r1="11" r2="4" stroke-width="7" stroke="#ff9900" fill="#ffffff" opacity="1" layer="MULTILAYER" />
    <circle net="0" cx="1485" cy="1000" r="7" r1="11" r2="4" stroke-width="7" stroke="#ff9900" fill="#ffffff" opacity="1" layer="MULTILAYER" />
    <circle net="0" cx="1485" cy="950" r="7" r1="11" r2="4" stroke-width="7" stroke="#ff9900" fill="#ffffff" opacity="1" layer="MULTILAYER" />
    <circle net="0" cx="1485" cy="900" r="7" r1="11" r2="4" stroke-width="7" stroke="#ff9900" fill="#ffffff" opacity="1" layer="MULTILAYER" />
    <circle net="0" cx="1485" cy="850" r="7" r1="11" r2="4" stroke-width="7" stroke="#ff9900" fill="#ffffff" opacity="1" layer="MULTILAYER" />
    <circle net="0" cx="1485" cy="800" r="7" r1="11" r2="4" stroke-width="7" stroke="#ff9900" fill="#ffffff" opacity="1" layer="MULTILAYER" />
    <circle net="0" cx="1485" cy="750" r="7" r1="11" r2="4" stroke-width="7" stroke="#ff9900" fill="#ffffff" opacity="1" layer="MULTILAYER" />
    <circle net="0" cx="1485" cy="700" r="7" r1="11" r2="4" stroke-width="7" stroke="#ff9900" fill="#ffffff" opacity="1" layer="MULTILAYER" />
    <circle net="0" cx="1485" cy="650" r="7" r1="11" r2="4" stroke-width="7" stroke="#ff9900" fill="#ffffff" opacity="1" layer="MULTILAYER" />
    <circle net="0" cx="1485" cy="600" r="7" r1="11" r2="4" stroke-width="7" stroke="#ff9900" fill="#ffffff" opacity="1" layer="MULTILAYER" />
    <circle net="0" cx="1485" cy="550" r="7" r1="11" r2="4" stroke-width="7" stroke="#ff9900" fill="#ffffff" opacity="1" layer="MULTILAYER" />
    <circle net="0" cx="1485" cy="500" r="7" r1="11" r2="4" stroke-width="7" stroke="#ff9900" fill="#ffffff" opacity="1" layer="MULTILAYER" />
    <circle net="0" cx="1485" cy="450" r="7" r1="11" r2="4" stroke-width="7" stroke="#ff9900" fill="#ffffff" opacity="1" layer="MULTILAYER" />
    <circle net="0" cx="1485" cy="400" r="7" r1="11" r2="4" stroke-width="7" stroke="#ff9900" fill="#ffffff" opacity="1" layer="MULTILAYER" />
    <circle net="0" cx="1485" cy="350" r="7" r1="11" r2="4" stroke-width="7" stroke="#ff9900" fill="#ffffff" opacity="1" layer="MULTILAYER" />
    <circle net="0" cx="1485" cy="300" r="7" r1="11" r2="4" stroke-width="7" stroke="#ff9900" fill="#ffffff" opacity="1" layer="MULTILAYER" />
    <circle net="0" cx="1485" cy="250" r="7" r1="11" r2="4" stroke-width="7" stroke="#ff9900" fill="#ffffff" opacity="1" layer="MULTILAYER" />
    <circle net="0" cx="1485" cy="1700" r="7" r1="11" r2="4" stroke-width="7" stroke="#ff9900" fill="#ffffff" opacity="1" layer="MULTILAYER" />
    <circle net="0" cx="1485" cy="1750" r="7" r1="11" r2="4" stroke-width="7" stroke="#ff9900" fill="#ffffff" opacity="1" layer="MULTILAYER" />
    <circle net="0" cx="1485" cy="1785" r="7" r1="11" r2="4" stroke-width="7" stroke="#ff9900" fill="#ffffff" opacity="1" layer="MULTILAYER" />
    <circle net="0" cx="1485" cy="1850" r="7" r1="11" r2="4" stroke-width="7" stroke="#ff9900" fill="#ffffff" opacity="1" layer="MULTILAYER" />
    <circle net="0" cx="1485" cy="1900" r="7" r1="11" r2="4" stroke-width="7" stroke="#ff9900" fill="#ffffff" opacity="1" layer="MULTILAYER" />
    <circle net="0" cx="1485" cy="1950" r="7" r1="11" r2="4" stroke-width="7" stroke="#ff9900" fill="#ffffff" opacity="1" layer="MULTILAYER" />
    <circle net="0" cx="1485" cy="2000" r="7" r1="11" r2="4" stroke-width="7" stroke="#ff9900" fill="#ffffff" opacity="1" layer="MULTILAYER" />
    <circle net="0" cx="1485" cy="2050" r="7" r1="11" r2="4" stroke-width="7" stroke="#ff9900" fill="#ffffff" opacity="1" layer="MULTILAYER" />
    <circle net="0" cx="1485" cy="2100" r="7" r1="11" r2="4" stroke-width="7" stroke="#ff9900" fill="#ffffff" opacity="1" layer="MULTILAYER" />
    <circle net="0" cx="1485" cy="2150" r="7" r1="11" r2="4" stroke-width="7" stroke="#ff9900" fill="#ffffff" opacity="1" layer="MULTILAYER" />
    <circle net="0" cx="1485" cy="2200" r="7" r1="11" r2="4" stroke-width="7" stroke="#ff9900" fill="#ffffff" opacity="1" layer="MULTILAYER" />
    <circle net="0" cx="1485" cy="2250" r="7" r1="11" r2="4" stroke-width="7" stroke="#ff9900" fill="#ffffff" opacity="1" layer="MULTILAYER" />
    <circle net="0" cx="1485" cy="2300" r="7" r1="11" r2="4" stroke-width="7" stroke="#ff9900" fill="#ffffff" opacity="1" layer="MULTILAYER" />
    <circle net="0" cx="1485" cy="2350" r="7" r1="11" r2="4" stroke-width="7" stroke="#ff9900" fill="#ffffff" opacity="1" layer="MULTILAYER" />
    <circle net="0" cx="1485" cy="2400" r="7" r1="11" r2="4" stroke-width="7" stroke="#ff9900" fill="#ffffff" opacity="1" layer="MULTILAYER" />
    <circle net="0" cx="1485" cy="2450" r="7" r1="11" r2="4" stroke-width="7" stroke="#ff9900" fill="#ffffff" opacity="1" layer="MULTILAYER" />
    <circle net="0" cx="1485" cy="2500" r="7" r1="11" r2="4" stroke-width="7" stroke="#ff9900" fill="#ffffff" opacity="1" layer="MULTILAYER" />
    <circle net="0" cx="1485" cy="2550" r="7" r1="11" r2="4" stroke-width="7" stroke="#ff9900" fill="#ffffff" opacity="1" layer="MULTILAYER" />
    <circle net="0" cx="1485" cy="2600" r="7" r1="11" r2="4" stroke-width="7" stroke="#ff9900" fill="#ffffff" opacity="1" layer="MULTILAYER" />
    <circle net="0" cx="1485" cy="2650" r="7" r1="11" r2="4" stroke-width="7" stroke="#ff9900" fill="#ffffff" opacity="1" layer="MULTILAYER" />
    <circle net="0" cx="1485" cy="2700" r="7" r1="11" r2="4" stroke-width="7" stroke="#ff9900" fill="#ffffff" opacity="1" layer="MULTILAYER" />
    <circle net="0" cx="1485" cy="2750" r="7" r1="11" r2="4" stroke-width="7" stroke="#ff9900" fill="#ffffff" opacity="1" layer="MULTILAYER" />
    <circle net="0" cx="1485" cy="2800" r="7" r1="11" r2="4" stroke-width="7" stroke="#ff9900" fill="#ffffff" opacity="1" layer="MULTILAYER" />
    <circle net="0" cx="1485" cy="3000" r="7" r1="11" r2="4" stroke-width="7" stroke="#ff9900" fill="#ffffff" opacity="1" layer="MULTILAYER" />
    <circle net="0" cx="1485" cy="2950" r="7" r1="11" r2="4" stroke-width="7" stroke="#ff9900" fill="#ffffff" opacity="1" layer="MULTILAYER" />
    <circle net="0" cx="1485" cy="2900" r="7" r1="11" r2="4" stroke-width="7" stroke="#ff9900" fill="#ffffff" opacity="1" layer="MULTILAYER" />
    <circle net="0" cx="1485" cy="2850" r="7" r1="11" r2="4" stroke-width="7" stroke="#ff9900" fill="#ffffff" opacity="1" layer="MULTILAYER" />
    <circle net="7" cx="1450" cy="1465" r="7" r1="11" r2="4" stroke-width="7" stroke="#ff9900" fill="#ffffff" opacity="1" layer="MULTILAYER" />
    <circle net="1" cx="1375" cy="1515" r="7" r1="11" r2="4" stroke-width="7" stroke="#ff9900" fill="#ffffff" opacity="1" layer="MULTILAYER" />
    <circle net="10" cx="910" cy="1305" r="7" r1="11" r2="4" stroke-width="7" stroke="#ff9900" fill="#ffffff" opacity="1" layer="MULTILAYER" />
    <circle net="0" cx="1340" cy="1375" r="7" r1="11" r2="4" stroke-width="7" stroke="#ff9900" fill="#ffffff" opacity="1" layer="MULTILAYER" />
    <circle net="7" cx="1290" cy="1335" r="7" r1="11" r2="4" stroke-width="7" stroke="#ff9900" fill="#ffffff" opacity="1" layer="MULTILAYER" />
    <circle net="7" cx="1180" cy="1260" r="7" r1="11" r2="4" stroke-width="7" stroke="#ff9900" fill="#ffffff" opacity="1" layer="MULTILAYER" />
    <circle net="7" cx="1265" cy="1335" r="7" r1="11" r2="4" stroke-width="7" stroke="#ff9900" fill="#ffffff" opacity="1" layer="MULTILAYER" />
    <circle net="2" cx="1055" cy="1765" r="7" r1="11" r2="4" stroke-width="7" stroke="#ff9900" fill="#ffffff" opacity="1" layer="MULTILAYER" />
    <circle net="7" cx="1315" cy="1260" r="7" r1="11" r2="4" stroke-width="7" stroke="#ff9900" fill="#ffffff" opacity="1" layer="MULTILAYER" />
    <circle net="7" cx="1340" cy="1335" r="7" r1="11" r2="4" stroke-width="7" stroke="#ff9900" fill="#ffffff" opacity="1" layer="MULTILAYER" />
    <circle net="7" cx="1290" cy="1260" r="7" r1="11" r2="4" stroke-width="7" stroke="#ff9900" fill="#ffffff" opacity="1" layer="MULTILAYER" />
    <circle net="7" cx="1340" cy="1260" r="7" r1="11" r2="4" stroke-width="7" stroke="#ff9900" fill="#ffffff" opacity="1" layer="MULTILAYER" />
    <circle net="7" cx="1315" cy="1335" r="7" r1="11" r2="4" stroke-width="7" stroke="#ff9900" fill="#ffffff" opacity="1" layer="MULTILAYER" />
    <circle net="2" cx="1340" cy="1825" r="7" r1="11" r2="4" stroke-width="7" stroke="#ff9900" fill="#ffffff" opacity="1" layer="MULTILAYER" />
    <circle net="2" cx="1130" cy="1900" r="7" r1="11" r2="4" stroke-width="7" stroke="#ff9900" fill="#ffffff" opacity="1" layer="MULTILAYER" />
    <circle net="2" cx="1155" cy="1900" r="7" r1="11" r2="4" stroke-width="7" stroke="#ff9900" fill="#ffffff" opacity="1" layer="MULTILAYER" />
    <circle net="2" cx="1180" cy="1900" r="7" r1="11" r2="4" stroke-width="7" stroke="#ff9900" fill="#ffffff" opacity="1" layer="MULTILAYER" />
    <circle net="2" cx="1205" cy="1900" r="7" r1="11" r2="4" stroke-width="7" stroke="#ff9900" fill="#ffffff" opacity="1" layer="MULTILAYER" />
    <circle net="2" cx="1340" cy="1900" r="7" r1="11" r2="4" stroke-width="7" stroke="#ff9900" fill="#ffffff" opacity="1" layer="MULTILAYER" />
    <circle net="2" cx="1155" cy="1825" r="7" r1="11" r2="4" stroke-width="7" stroke="#ff9900" fill="#ffffff" opacity="1" layer="MULTILAYER" />
    <circle net="2" cx="1180" cy="1825" r="7" r1="11" r2="4" stroke-width="7" stroke="#ff9900" fill="#ffffff" opacity="1" layer="MULTILAYER" />
    <circle net="2" cx="1290" cy="1825" r="7" r1="11" r2="4" stroke-width="7" stroke="#ff9900" fill="#ffffff" opacity="1" layer="MULTILAYER" />
    <circle net="2" cx="1315" cy="1825" r="7" r1="11" r2="4" stroke-width="7" stroke="#ff9900" fill="#ffffff" opacity="1" layer="MULTILAYER" />
    <circle net="2" cx="1130" cy="1825" r="7" r1="11" r2="4" stroke-width="7" stroke="#ff9900" fill="#ffffff" opacity="1" layer="MULTILAYER" />
    <circle net="2" cx="1205" cy="1825" r="7" r1="11" r2="4" stroke-width="7" stroke="#ff9900" fill="#ffffff" opacity="1" layer="MULTILAYER" />
    <circle net="0" cx="945" cy="1785" r="7" r1="11" r2="4" stroke-width="7" stroke="#ff9900" fill="#ffffff" opacity="1" layer="MULTILAYER" />
    <circle net="15" cx="1115" cy="1636" r="7" r1="11" r2="4" stroke-width="7" stroke="#ff9900" fill="#ffffff" opacity="1" layer="MULTILAYER" />
    <circle net="10" cx="1375" cy="1636" r="7" r1="11" r2="4" stroke-width="7" stroke="#ff9900" fill="#ffffff" opacity="1" layer="MULTILAYER" />
    <circle net="2" cx="1265" cy="1900" r="7" r1="11" r2="4" stroke-width="7" stroke="#ff9900" fill="#ffffff" opacity="1" layer="MULTILAYER" />
    <circle net="2" cx="1290" cy="1900" r="7" r1="11" r2="4" stroke-width="7" stroke="#ff9900" fill="#ffffff" opacity="1" layer="MULTILAYER" />
    <circle net="2" cx="1315" cy="1900" r="7" r1="11" r2="4" stroke-width="7" stroke="#ff9900" fill="#ffffff" opacity="1" layer="MULTILAYER" />
    <circle net="14" cx="1065" cy="1545" r="7" r1="11" r2="4" stroke-width="7" stroke="#ff9900" fill="#ffffff" opacity="1" layer="MULTILAYER" />
    <circle net="0" cx="1197" cy="1552" r="6" r1="9" r2="3" stroke-width="5" stroke="#ff9900" fill="#ffffff" opacity="1" layer="MULTILAYER" />
    <circle net="0" cx="1276" cy="1552" r="6" r1="9" r2="3" stroke-width="5" stroke="#ff9900" fill="#ffffff" opacity="1" layer="MULTILAYER" />
    <circle net="0" cx="1237" cy="1552" r="6" r1="9" r2="3" stroke-width="5" stroke="#ff9900" fill="#ffffff" opacity="1" layer="MULTILAYER" />
    <circle net="0" cx="1197" cy="1627" r="6" r1="9" r2="3" stroke-width="5" stroke="#ff9900" fill="#ffffff" opacity="1" layer="MULTILAYER" />
    <circle net="0" cx="1276" cy="1627" r="6" r1="9" r2="3" stroke-width="5" stroke="#ff9900" fill="#ffffff" opacity="1" layer="MULTILAYER" />
    <circle net="0" cx="1237" cy="1627" r="6" r1="9" r2="3" stroke-width="5" stroke="#ff9900" fill="#ffffff" opacity="1" layer="MULTILAYER" />
    <circle net="0" cx="1237" cy="1590" r="6" r1="9" r2="3" stroke-width="5" stroke="#ff9900" fill="#ffffff" opacity="1" layer="MULTILAYER" />
    <circle net="0" cx="1276" cy="1590" r="6" r1="9" r2="3" stroke-width="5" stroke="#ff9900" fill="#ffffff" opacity="1" layer="MULTILAYER" />
    <circle net="0" cx="1197" cy="1590" r="6" r1="9" r2="3" stroke-width="5" stroke="#ff9900" fill="#ffffff" opacity="1" layer="MULTILAYER" />
    <circle net="7" cx="1265" cy="1260" r="7" r1="11" r2="4" stroke-width="7" stroke="#ff9900" fill="#ffffff" opacity="1" layer="MULTILAYER" />
    <circle net="7" cx="1155" cy="1260" r="7" r1="11" r2="4" stroke-width="7" stroke="#ff9900" fill="#ffffff" opacity="1" layer="MULTILAYER" />
    <circle net="7" cx="1205" cy="1260" r="7" r1="11" r2="4" stroke-width="7" stroke="#ff9900" fill="#ffffff" opacity="1" layer="MULTILAYER" />
    <circle net="7" cx="1130" cy="1335" r="7" r1="11" r2="4" stroke-width="7" stroke="#ff9900" fill="#ffffff" opacity="1" layer="MULTILAYER" />
    <circle net="7" cx="1130" cy="1260" r="7" r1="11" r2="4" stroke-width="7" stroke="#ff9900" fill="#ffffff" opacity="1" layer="MULTILAYER" />
    <circle net="7" cx="1155" cy="1335" r="7" r1="11" r2="4" stroke-width="7" stroke="#ff9900" fill="#ffffff" opacity="1" layer="MULTILAYER" />
    <circle net="7" cx="1180" cy="1335" r="7" r1="11" r2="4" stroke-width="7" stroke="#ff9900" fill="#ffffff" opacity="1" layer="MULTILAYER" />
    <circle net="7" cx="1205" cy="1335" r="7" r1="11" r2="4" stroke-width="7" stroke="#ff9900" fill="#ffffff" opacity="1" layer="MULTILAYER" />
    <circle net="2" cx="1265" cy="1825" r="7" r1="11" r2="4" stroke-width="7" stroke="#ff9900" fill="#ffffff" opacity="1" layer="MULTILAYER" />
    <circle net="0" cx="1130" cy="1375" r="7" r1="11" r2="4" stroke-width="7" stroke="#ff9900" fill="#ffffff" opacity="1" layer="MULTILAYER" />
    <circle net="0" cx="1265" cy="1375" r="7" r1="11" r2="4" stroke-width="7" stroke="#ff9900" fill="#ffffff" opacity="1" layer="MULTILAYER" />
    <circle net="0" cx="1205" cy="1375" r="7" r1="11" r2="4" stroke-width="7" stroke="#ff9900" fill="#ffffff" opacity="1" layer="MULTILAYER" />
    <circle net="0" cx="750" cy="1250" r="7" r1="11" r2="4" stroke-width="7" stroke="#ff9900" fill="#ffffff" opacity="1" layer="MULTILAYER" />
    <circle net="0" cx="1205" cy="1790" r="7" r1="11" r2="4" stroke-width="7" stroke="#ff9900" fill="#ffffff" opacity="1" layer="MULTILAYER" />
    <circle net="0" cx="1265" cy="1790" r="7" r1="11" r2="4" stroke-width="7" stroke="#ff9900" fill="#ffffff" opacity="1" layer="MULTILAYER" />
    <circle net="0" cx="1130" cy="1790" r="7" r1="11" r2="4" stroke-width="7" stroke="#ff9900" fill="#ffffff" opacity="1" layer="MULTILAYER" />
    <circle net="0" cx="1340" cy="1790" r="7" r1="11" r2="4" stroke-width="7" stroke="#ff9900" fill="#ffffff" opacity="1" layer="MULTILAYER" />
    <circle net="15" cx="800" cy="1635" r="58.8" r1="68" r2="49" stroke-width="19" stroke="#ff9900" fill="#ffffff" opacity="1" layer="MULTILAYER" />
    <circle net="0" cx="1625" cy="305" r="58.8" r1="68" r2="49" stroke-width="19" stroke="#ff9900" fill="#ffffff" opacity="1" layer="MULTILAYER" />
    <circle net="7" cx="1360" cy="305" r="58.8" r1="68" r2="49" stroke-width="19" stroke="#ff9900" fill="#ffffff" opacity="1" layer="MULTILAYER" />
    <circle net="2" cx="1335" cy="2930" r="58.8" r1="68" r2="49" stroke-width="19" stroke="#ff9900" fill="#ffffff" opacity="1" layer="MULTILAYER" />
    <circle net="0" cx="1625" cy="2930" r="58.8" r1="68" r2="49" stroke-width="19" stroke="#ff9900" fill="#ffffff" opacity="1" layer="MULTILAYER" />
  </g>
</svg>

