<?xml version="1.0" encoding="UTF-8"?>
<!DOCTYPE svg PUBLIC "-//W3C//DTD SVG 1.1//EN" "http://www.w3.org/Graphics/SVG/1.1/DTD/svg11.dtd">

<svg xmlns="http://www.w3.org/2000/svg" xmlns:xlink="http://www.w3.org/1999/xlink" width="254px" height="330px" viewbox="0 0 254 330" version="1.1">
  <title>TPSM53604_BUCK_RDA_A_mid2: null</title>
  <desc>TPSM53604_BUCK_RDA_A WebTHERM&amp;reg; Board Layout file</desc>
  <g id="board" fill-opacity="1" transform="scale(0.1016,-0.1016) translate(0,-3250.0)">
    <rect x="0" y="0" width="2500" height="3250" stroke="#006600" stroke-width="0" fill="#006600" type="Fill" layer="PCB" />
    <polygon net="0" points="2475,1805 1370,1805 1370,1815 1370,1816 1370,1915 1370,1915 1370,1925 1360,1925 1360,1925 1105,1925 1104,1925 1095,1925 1095,1915 1094,1915 1094,1810 1095,1809 1095,1800 1104,1800 1105,1799 1122,1799 1123,1800 1136,1800 1137,1799 1197,1799 1198,1800 1211,1800 1212,1799 1257,1799 1258,1800 1271,1800 1272,1799 1332,1799 1333,1800 1346,1800 1347,1799 1359,1799 1360,1800 2475,1800 2475,1360 1360,1360 1359,1360 1100,1360 1099,1360 1090,1360 1090,1350 1089,1350 1089,1245 1090,1244 1090,1235 1099,1235 1100,1234 1360,1234 1360,1235 1370,1235 1370,1244 1370,1245 1370,1343 1370,1344 1370,1345 1370,1355 2475,1355 2475,25 25,25 25,3225 2475,3225" stroke-width="0.0" stroke="#ff9900" fill="#ff9900" stroke-linecap="round" stroke-linejoin="round" opacity="1.0" layer="MID2" />
    <polygon net="0" points="1335,3009 1319,3007 1304,3003 1290,2995 1278,2986 1269,2974 1261,2960 1257,2945 1255,2930 1257,2914 1261,2899 1269,2885 1278,2873 1290,2864 1304,2856 1319,2852 1335,2850 1350,2852 1365,2856 1379,2864 1391,2873 1400,2885 1408,2899 1412,2914 1414,2930 1412,2945 1408,2960 1400,2974 1391,2986 1379,2995 1365,3003 1350,3007" stroke-width="0.0" stroke="#006600" fill="#006600" stroke-linecap="round" stroke-linejoin="round" opacity="1.0" layer="MID2" />
    <polygon net="0" points="1055,1786 1046,1784 1039,1780 1035,1773 1033,1765 1035,1756 1039,1749 1046,1745 1055,1743 1063,1745 1070,1749 1074,1756 1076,1765 1074,1773 1070,1780 1063,1784" stroke-width="0.0" stroke="#006600" fill="#006600" stroke-linecap="round" stroke-linejoin="round" opacity="1.0" layer="MID2" />
    <polygon net="0" points="1331,1697 1025,1697 1018,1696 1012,1692 897,1577 893,1571 892,1565 892,1316 890,1313 888,1305 890,1296 894,1289 901,1285 910,1283 918,1285 925,1289 929,1296 931,1305 929,1313 927,1316 927,1557 1032,1662 1111,1662 1112,1657 1106,1656 1099,1651 1095,1644 1093,1636 1095,1628 1099,1621 1106,1616 1115,1614 1123,1616 1130,1621 1134,1628 1136,1636 1134,1644 1130,1651 1123,1656 1117,1657 1118,1662 1323,1662 1354,1631 1355,1628 1359,1621 1366,1616 1375,1614 1383,1616 1390,1621 1394,1628 1396,1636 1394,1644 1390,1651 1383,1656 1379,1656 1343,1692 1338,1696" stroke-width="0.0" stroke="#006600" fill="#006600" stroke-linecap="round" stroke-linejoin="round" opacity="1.0" layer="MID2" />
    <polygon net="0" points="800,1714 784,1712 769,1708 755,1700 743,1691 734,1679 726,1665 722,1650 720,1635 722,1619 726,1604 734,1590 743,1578 755,1569 769,1561 784,1557 800,1555 815,1557 830,1561 844,1569 856,1578 865,1590 873,1604 877,1619 879,1635 877,1650 873,1665 865,1679 856,1691 844,1700 830,1708 815,1712" stroke-width="0.0" stroke="#006600" fill="#006600" stroke-linecap="round" stroke-linejoin="round" opacity="1.0" layer="MID2" />
    <polygon net="0" points="1065,1566 1056,1564 1049,1560 1045,1553 1043,1545 1045,1536 1049,1529 1056,1525 1065,1523 1073,1525 1080,1529 1084,1536 1086,1545 1084,1553 1080,1560 1073,1564" stroke-width="0.0" stroke="#006600" fill="#006600" stroke-linecap="round" stroke-linejoin="round" opacity="1.0" layer="MID2" />
    <polygon net="0" points="1375,1536 1366,1534 1359,1530 1355,1523 1353,1515 1355,1506 1359,1499 1366,1495 1375,1493 1383,1495 1390,1499 1394,1506 1396,1515 1394,1523 1390,1530 1383,1534" stroke-width="0.0" stroke="#006600" fill="#006600" stroke-linecap="round" stroke-linejoin="round" opacity="1.0" layer="MID2" />
    <polygon net="0" points="1450,1486 1441,1484 1434,1480 1430,1473 1428,1465 1430,1456 1434,1449 1441,1445 1450,1443 1458,1445 1465,1449 1469,1456 1471,1465 1469,1473 1465,1480 1458,1484" stroke-width="0.0" stroke="#006600" fill="#006600" stroke-linecap="round" stroke-linejoin="round" opacity="1.0" layer="MID2" />
    <polygon net="0" points="1360,384 1344,382 1329,378 1315,370 1303,361 1294,349 1286,335 1282,320 1280,305 1282,289 1286,274 1294,260 1303,248 1315,239 1329,231 1344,227 1360,225 1375,227 1390,231 1404,239 1416,248 1425,260 1433,274 1437,289 1439,305 1437,320 1433,335 1425,349 1416,361 1404,370 1390,378 1375,382" stroke-width="0.0" stroke="#006600" fill="#006600" stroke-linecap="round" stroke-linejoin="round" opacity="1.0" layer="MID2" />
    <polygon net="7" points="1359,1345 1360,1343 1360,1245 1100,1245 1100,1350 1359,1350" stroke-width="0.0" stroke="#ff9900" fill="#ff9900" stroke-linecap="round" stroke-linejoin="round" opacity="1.0" layer="MID2" />
    <polygon net="2" points="1360,1816 1359,1815 1359,1810 1347,1810 1340,1811 1332,1810 1272,1810 1265,1811 1257,1810 1212,1810 1205,1811 1197,1810 1137,1810 1130,1811 1122,1810 1105,1810 1105,1915 1360,1915" stroke-width="0.0" stroke="#ff9900" fill="#ff9900" stroke-linecap="round" stroke-linejoin="round" opacity="1.0" layer="MID2" />
    <line net="10" x1="1331" y1="1680" x2="1375" y2="1636" stroke-width="15" stroke="#ff9900" stroke-linecap="round" stroke-linejoin="round" opacity="1.0" layer="MID2" />
    <line net="10" x1="1025" y1="1680" x2="1331" y2="1680" stroke-width="15" stroke="#ff9900" stroke-linecap="round" stroke-linejoin="round" opacity="1.0" layer="MID2" />
    <line net="10" x1="910" y1="1565" x2="1025" y2="1680" stroke-width="15" stroke="#ff9900" stroke-linecap="round" stroke-linejoin="round" opacity="1.0" layer="MID2" />
    <line net="10" x1="910" y1="1305" x2="910" y2="1565" stroke-width="15" stroke="#ff9900" stroke-linecap="round" stroke-linejoin="round" opacity="1.0" layer="MID2" />
    <line net="0" x1="1375" y1="1802" x2="2470" y2="1802" stroke-width="10" stroke="#ff9900" stroke-linecap="round" stroke-linejoin="round" opacity="1.0" layer="MID2" />
    <line net="0" x1="1375" y1="1790" x2="1375" y2="1802" stroke-width="10" stroke="#ff9900" stroke-linecap="round" stroke-linejoin="round" opacity="1.0" layer="MID2" />
    <line net="0" x1="1375" y1="1802" x2="1375" y2="1815" stroke-width="10" stroke="#ff9900" stroke-linecap="round" stroke-linejoin="round" opacity="1.0" layer="MID2" />
    <line net="0" x1="1375" y1="1357" x2="2470" y2="1357" stroke-width="10" stroke="#ff9900" stroke-linecap="round" stroke-linejoin="round" opacity="1.0" layer="MID2" />
    <line net="0" x1="1375" y1="1345" x2="1375" y2="1357" stroke-width="10" stroke="#ff9900" stroke-linecap="round" stroke-linejoin="round" opacity="1.0" layer="MID2" />
    <line net="0" x1="1375" y1="1357" x2="1375" y2="1370" stroke-width="10" stroke="#ff9900" stroke-linecap="round" stroke-linejoin="round" opacity="1.0" layer="MID2" />
    <line net="0" x1="2470" y1="1790" x2="2470" y2="1815" stroke-width="10" stroke="#ff9900" stroke-linecap="round" stroke-linejoin="round" opacity="1.0" layer="MID2" />
    <line net="0" x1="2470" y1="1345" x2="2470" y2="1370" stroke-width="10" stroke="#ff9900" stroke-linecap="round" stroke-linejoin="round" opacity="1.0" layer="MID2" />
    <circle net="0" cx="1440" cy="185" r="7" r1="11" r2="4" stroke-width="7" stroke="#ff9900" fill="#ffffff" opacity="1" layer="MULTILAYER" />
    <circle net="0" cx="1050" cy="535" r="7" r1="11" r2="4" stroke-width="7" stroke="#ff9900" fill="#ffffff" opacity="1" layer="MULTILAYER" />
    <circle net="0" cx="1100" cy="535" r="7" r1="11" r2="4" stroke-width="7" stroke="#ff9900" fill="#ffffff" opacity="1" layer="MULTILAYER" />
    <circle net="0" cx="1145" cy="535" r="7" r1="11" r2="4" stroke-width="7" stroke="#ff9900" fill="#ffffff" opacity="1" layer="MULTILAYER" />
    <circle net="0" cx="1250" cy="3055" r="7" r1="11" r2="4" stroke-width="7" stroke="#ff9900" fill="#ffffff" opacity="1" layer="MULTILAYER" />
    <circle net="0" cx="1300" cy="3055" r="7" r1="11" r2="4" stroke-width="7" stroke="#ff9900" fill="#ffffff" opacity="1" layer="MULTILAYER" />
    <circle net="0" cx="1350" cy="3055" r="7" r1="11" r2="4" stroke-width="7" stroke="#ff9900" fill="#ffffff" opacity="1" layer="MULTILAYER" />
    <circle net="0" cx="1400" cy="3055" r="7" r1="11" r2="4" stroke-width="7" stroke="#ff9900" fill="#ffffff" opacity="1" layer="MULTILAYER" />
    <circle net="0" cx="1440" cy="3055" r="7" r1="11" r2="4" stroke-width="7" stroke="#ff9900" fill="#ffffff" opacity="1" layer="MULTILAYER" />
    <circle net="0" cx="1485" cy="3035" r="7" r1="11" r2="4" stroke-width="7" stroke="#ff9900" fill="#ffffff" opacity="1" layer="MULTILAYER" />
    <circle net="0" cx="1250" cy="185" r="7" r1="11" r2="4" stroke-width="7" stroke="#ff9900" fill="#ffffff" opacity="1" layer="MULTILAYER" />
    <circle net="0" cx="1300" cy="185" r="7" r1="11" r2="4" stroke-width="7" stroke="#ff9900" fill="#ffffff" opacity="1" layer="MULTILAYER" />
    <circle net="0" cx="1350" cy="185" r="7" r1="11" r2="4" stroke-width="7" stroke="#ff9900" fill="#ffffff" opacity="1" layer="MULTILAYER" />
    <circle net="0" cx="1400" cy="185" r="7" r1="11" r2="4" stroke-width="7" stroke="#ff9900" fill="#ffffff" opacity="1" layer="MULTILAYER" />
    <circle net="0" cx="1485" cy="210" r="7" r1="11" r2="4" stroke-width="7" stroke="#ff9900" fill="#ffffff" opacity="1" layer="MULTILAYER" />
    <circle net="0" cx="1050" cy="2770" r="7" r1="11" r2="4" stroke-width="7" stroke="#ff9900" fill="#ffffff" opacity="1" layer="MULTILAYER" />
    <circle net="0" cx="1100" cy="2770" r="7" r1="11" r2="4" stroke-width="7" stroke="#ff9900" fill="#ffffff" opacity="1" layer="MULTILAYER" />
    <circle net="0" cx="1175" cy="2900" r="7" r1="11" r2="4" stroke-width="7" stroke="#ff9900" fill="#ffffff" opacity="1" layer="MULTILAYER" />
    <circle net="0" cx="1175" cy="2950" r="7" r1="11" r2="4" stroke-width="7" stroke="#ff9900" fill="#ffffff" opacity="1" layer="MULTILAYER" />
    <circle net="0" cx="1175" cy="3000" r="7" r1="11" r2="4" stroke-width="7" stroke="#ff9900" fill="#ffffff" opacity="1" layer="MULTILAYER" />
    <circle net="0" cx="1175" cy="3050" r="7" r1="11" r2="4" stroke-width="7" stroke="#ff9900" fill="#ffffff" opacity="1" layer="MULTILAYER" />
    <circle net="0" cx="1175" cy="2850" r="7" r1="11" r2="4" stroke-width="7" stroke="#ff9900" fill="#ffffff" opacity="1" layer="MULTILAYER" />
    <circle net="0" cx="1175" cy="2800" r="7" r1="11" r2="4" stroke-width="7" stroke="#ff9900" fill="#ffffff" opacity="1" layer="MULTILAYER" />
    <circle net="0" cx="1140" cy="2775" r="7" r1="11" r2="4" stroke-width="7" stroke="#ff9900" fill="#ffffff" opacity="1" layer="MULTILAYER" />
    <circle net="0" cx="1000" cy="2750" r="7" r1="11" r2="4" stroke-width="7" stroke="#ff9900" fill="#ffffff" opacity="1" layer="MULTILAYER" />
    <circle net="0" cx="1000" cy="2700" r="7" r1="11" r2="4" stroke-width="7" stroke="#ff9900" fill="#ffffff" opacity="1" layer="MULTILAYER" />
    <circle net="0" cx="1000" cy="2650" r="7" r1="11" r2="4" stroke-width="7" stroke="#ff9900" fill="#ffffff" opacity="1" layer="MULTILAYER" />
    <circle net="0" cx="1000" cy="2600" r="7" r1="11" r2="4" stroke-width="7" stroke="#ff9900" fill="#ffffff" opacity="1" layer="MULTILAYER" />
    <circle net="0" cx="1000" cy="2550" r="7" r1="11" r2="4" stroke-width="7" stroke="#ff9900" fill="#ffffff" opacity="1" layer="MULTILAYER" />
    <circle net="0" cx="1000" cy="2500" r="7" r1="11" r2="4" stroke-width="7" stroke="#ff9900" fill="#ffffff" opacity="1" layer="MULTILAYER" />
    <circle net="0" cx="1000" cy="2450" r="7" r1="11" r2="4" stroke-width="7" stroke="#ff9900" fill="#ffffff" opacity="1" layer="MULTILAYER" />
    <circle net="0" cx="1000" cy="2400" r="7" r1="11" r2="4" stroke-width="7" stroke="#ff9900" fill="#ffffff" opacity="1" layer="MULTILAYER" />
    <circle net="0" cx="1000" cy="2350" r="7" r1="11" r2="4" stroke-width="7" stroke="#ff9900" fill="#ffffff" opacity="1" layer="MULTILAYER" />
    <circle net="0" cx="1000" cy="2300" r="7" r1="11" r2="4" stroke-width="7" stroke="#ff9900" fill="#ffffff" opacity="1" layer="MULTILAYER" />
    <circle net="0" cx="1000" cy="2250" r="7" r1="11" r2="4" stroke-width="7" stroke="#ff9900" fill="#ffffff" opacity="1" layer="MULTILAYER" />
    <circle net="0" cx="1000" cy="2200" r="7" r1="11" r2="4" stroke-width="7" stroke="#ff9900" fill="#ffffff" opacity="1" layer="MULTILAYER" />
    <circle net="0" cx="1000" cy="2150" r="7" r1="11" r2="4" stroke-width="7" stroke="#ff9900" fill="#ffffff" opacity="1" layer="MULTILAYER" />
    <circle net="0" cx="1000" cy="2100" r="7" r1="11" r2="4" stroke-width="7" stroke="#ff9900" fill="#ffffff" opacity="1" layer="MULTILAYER" />
    <circle net="0" cx="1000" cy="2050" r="7" r1="11" r2="4" stroke-width="7" stroke="#ff9900" fill="#ffffff" opacity="1" layer="MULTILAYER" />
    <circle net="0" cx="1000" cy="2000" r="7" r1="11" r2="4" stroke-width="7" stroke="#ff9900" fill="#ffffff" opacity="1" layer="MULTILAYER" />
    <circle net="0" cx="1000" cy="1950" r="7" r1="11" r2="4" stroke-width="7" stroke="#ff9900" fill="#ffffff" opacity="1" layer="MULTILAYER" />
    <circle net="0" cx="1000" cy="1900" r="7" r1="11" r2="4" stroke-width="7" stroke="#ff9900" fill="#ffffff" opacity="1" layer="MULTILAYER" />
    <circle net="0" cx="1000" cy="1850" r="7" r1="11" r2="4" stroke-width="7" stroke="#ff9900" fill="#ffffff" opacity="1" layer="MULTILAYER" />
    <circle net="0" cx="1000" cy="1800" r="7" r1="11" r2="4" stroke-width="7" stroke="#ff9900" fill="#ffffff" opacity="1" layer="MULTILAYER" />
    <circle net="0" cx="1000" cy="1350" r="7" r1="11" r2="4" stroke-width="7" stroke="#ff9900" fill="#ffffff" opacity="1" layer="MULTILAYER" />
    <circle net="0" cx="1000" cy="1400" r="7" r1="11" r2="4" stroke-width="7" stroke="#ff9900" fill="#ffffff" opacity="1" layer="MULTILAYER" />
    <circle net="0" cx="1000" cy="1450" r="7" r1="11" r2="4" stroke-width="7" stroke="#ff9900" fill="#ffffff" opacity="1" layer="MULTILAYER" />
    <circle net="0" cx="1000" cy="1500" r="7" r1="11" r2="4" stroke-width="7" stroke="#ff9900" fill="#ffffff" opacity="1" layer="MULTILAYER" />
    <circle net="0" cx="1000" cy="1300" r="7" r1="11" r2="4" stroke-width="7" stroke="#ff9900" fill="#ffffff" opacity="1" layer="MULTILAYER" />
    <circle net="0" cx="1000" cy="1250" r="7" r1="11" r2="4" stroke-width="7" stroke="#ff9900" fill="#ffffff" opacity="1" layer="MULTILAYER" />
    <circle net="0" cx="1000" cy="1220" r="7" r1="11" r2="4" stroke-width="7" stroke="#ff9900" fill="#ffffff" opacity="1" layer="MULTILAYER" />
    <circle net="0" cx="1000" cy="1150" r="7" r1="11" r2="4" stroke-width="7" stroke="#ff9900" fill="#ffffff" opacity="1" layer="MULTILAYER" />
    <circle net="0" cx="1000" cy="1100" r="7" r1="11" r2="4" stroke-width="7" stroke="#ff9900" fill="#ffffff" opacity="1" layer="MULTILAYER" />
    <circle net="0" cx="1000" cy="1050" r="7" r1="11" r2="4" stroke-width="7" stroke="#ff9900" fill="#ffffff" opacity="1" layer="MULTILAYER" />
    <circle net="0" cx="1000" cy="1000" r="7" r1="11" r2="4" stroke-width="7" stroke="#ff9900" fill="#ffffff" opacity="1" layer="MULTILAYER" />
    <circle net="0" cx="1000" cy="950" r="7" r1="11" r2="4" stroke-width="7" stroke="#ff9900" fill="#ffffff" opacity="1" layer="MULTILAYER" />
    <circle net="0" cx="1000" cy="900" r="7" r1="11" r2="4" stroke-width="7" stroke="#ff9900" fill="#ffffff" opacity="1" layer="MULTILAYER" />
    <circle net="0" cx="1000" cy="850" r="7" r1="11" r2="4" stroke-width="7" stroke="#ff9900" fill="#ffffff" opacity="1" layer="MULTILAYER" />
    <circle net="0" cx="1000" cy="800" r="7" r1="11" r2="4" stroke-width="7" stroke="#ff9900" fill="#ffffff" opacity="1" layer="MULTILAYER" />
    <circle net="0" cx="1000" cy="750" r="7" r1="11" r2="4" stroke-width="7" stroke="#ff9900" fill="#ffffff" opacity="1" layer="MULTILAYER" />
    <circle net="0" cx="1000" cy="700" r="7" r1="11" r2="4" stroke-width="7" stroke="#ff9900" fill="#ffffff" opacity="1" layer="MULTILAYER" />
    <circle net="0" cx="1000" cy="650" r="7" r1="11" r2="4" stroke-width="7" stroke="#ff9900" fill="#ffffff" opacity="1" layer="MULTILAYER" />
    <circle net="0" cx="1000" cy="600" r="7" r1="11" r2="4" stroke-width="7" stroke="#ff9900" fill="#ffffff" opacity="1" layer="MULTILAYER" />
    <circle net="0" cx="1000" cy="550" r="7" r1="11" r2="4" stroke-width="7" stroke="#ff9900" fill="#ffffff" opacity="1" layer="MULTILAYER" />
    <circle net="0" cx="1175" cy="500" r="7" r1="11" r2="4" stroke-width="7" stroke="#ff9900" fill="#ffffff" opacity="1" layer="MULTILAYER" />
    <circle net="0" cx="1175" cy="450" r="7" r1="11" r2="4" stroke-width="7" stroke="#ff9900" fill="#ffffff" opacity="1" layer="MULTILAYER" />
    <circle net="0" cx="1175" cy="400" r="7" r1="11" r2="4" stroke-width="7" stroke="#ff9900" fill="#ffffff" opacity="1" layer="MULTILAYER" />
    <circle net="0" cx="1175" cy="350" r="7" r1="11" r2="4" stroke-width="7" stroke="#ff9900" fill="#ffffff" opacity="1" layer="MULTILAYER" />
    <circle net="0" cx="1175" cy="300" r="7" r1="11" r2="4" stroke-width="7" stroke="#ff9900" fill="#ffffff" opacity="1" layer="MULTILAYER" />
    <circle net="0" cx="1175" cy="250" r="7" r1="11" r2="4" stroke-width="7" stroke="#ff9900" fill="#ffffff" opacity="1" layer="MULTILAYER" />
    <circle net="0" cx="1175" cy="200" r="7" r1="11" r2="4" stroke-width="7" stroke="#ff9900" fill="#ffffff" opacity="1" layer="MULTILAYER" />
    <circle net="0" cx="1485" cy="1250" r="7" r1="11" r2="4" stroke-width="7" stroke="#ff9900" fill="#ffffff" opacity="1" layer="MULTILAYER" />
    <circle net="0" cx="1485" cy="1300" r="7" r1="11" r2="4" stroke-width="7" stroke="#ff9900" fill="#ffffff" opacity="1" layer="MULTILAYER" />
    <circle net="0" cx="1485" cy="1340" r="7" r1="11" r2="4" stroke-width="7" stroke="#ff9900" fill="#ffffff" opacity="1" layer="MULTILAYER" />
    <circle net="0" cx="1485" cy="1400" r="7" r1="11" r2="4" stroke-width="7" stroke="#ff9900" fill="#ffffff" opacity="1" layer="MULTILAYER" />
    <circle net="0" cx="1485" cy="1200" r="7" r1="11" r2="4" stroke-width="7" stroke="#ff9900" fill="#ffffff" opacity="1" layer="MULTILAYER" />
    <circle net="0" cx="1485" cy="1150" r="7" r1="11" r2="4" stroke-width="7" stroke="#ff9900" fill="#ffffff" opacity="1" layer="MULTILAYER" />
    <circle net="0" cx="1485" cy="1100" r="7" r1="11" r2="4" stroke-width="7" stroke="#ff9900" fill="#ffffff" opacity="1" layer="MULTILAYER" />
    <circle net="0" cx="1485" cy="1050" r="7" r1="11" r2="4" stroke-width="7" stroke="#ff9900" fill="#ffffff" opacity="1" layer="MULTILAYER" />
    <circle net="0" cx="1485" cy="1000" r="7" r1="11" r2="4" stroke-width="7" stroke="#ff9900" fill="#ffffff" opacity="1" layer="MULTILAYER" />
    <circle net="0" cx="1485" cy="950" r="7" r1="11" r2="4" stroke-width="7" stroke="#ff9900" fill="#ffffff" opacity="1" layer="MULTILAYER" />
    <circle net="0" cx="1485" cy="900" r="7" r1="11" r2="4" stroke-width="7" stroke="#ff9900" fill="#ffffff" opacity="1" layer="MULTILAYER" />
    <circle net="0" cx="1485" cy="850" r="7" r1="11" r2="4" stroke-width="7" stroke="#ff9900" fill="#ffffff" opacity="1" layer="MULTILAYER" />
    <circle net="0" cx="1485" cy="800" r="7" r1="11" r2="4" stroke-width="7" stroke="#ff9900" fill="#ffffff" opacity="1" layer="MULTILAYER" />
    <circle net="0" cx="1485" cy="750" r="7" r1="11" r2="4" stroke-width="7" stroke="#ff9900" fill="#ffffff" opacity="1" layer="MULTILAYER" />
    <circle net="0" cx="1485" cy="700" r="7" r1="11" r2="4" stroke-width="7" stroke="#ff9900" fill="#ffffff" opacity="1" layer="MULTILAYER" />
    <circle net="0" cx="1485" cy="650" r="7" r1="11" r2="4" stroke-width="7" stroke="#ff9900" fill="#ffffff" opacity="1" layer="MULTILAYER" />
    <circle net="0" cx="1485" cy="600" r="7" r1="11" r2="4" stroke-width="7" stroke="#ff9900" fill="#ffffff" opacity="1" layer="MULTILAYER" />
    <circle net="0" cx="1485" cy="550" r="7" r1="11" r2="4" stroke-width="7" stroke="#ff9900" fill="#ffffff" opacity="1" layer="MULTILAYER" />
    <circle net="0" cx="1485" cy="500" r="7" r1="11" r2="4" stroke-width="7" stroke="#ff9900" fill="#ffffff" opacity="1" layer="MULTILAYER" />
    <circle net="0" cx="1485" cy="450" r="7" r1="11" r2="4" stroke-width="7" stroke="#ff9900" fill="#ffffff" opacity="1" layer="MULTILAYER" />
    <circle net="0" cx="1485" cy="400" r="7" r1="11" r2="4" stroke-width="7" stroke="#ff9900" fill="#ffffff" opacity="1" layer="MULTILAYER" />
    <circle net="0" cx="1485" cy="350" r="7" r1="11" r2="4" stroke-width="7" stroke="#ff9900" fill="#ffffff" opacity="1" layer="MULTILAYER" />
    <circle net="0" cx="1485" cy="300" r="7" r1="11" r2="4" stroke-width="7" stroke="#ff9900" fill="#ffffff" opacity="1" layer="MULTILAYER" />
    <circle net="0" cx="1485" cy="250" r="7" r1="11" r2="4" stroke-width="7" stroke="#ff9900" fill="#ffffff" opacity="1" layer="MULTILAYER" />
    <circle net="0" cx="1485" cy="1700" r="7" r1="11" r2="4" stroke-width="7" stroke="#ff9900" fill="#ffffff" opacity="1" layer="MULTILAYER" />
    <circle net="0" cx="1485" cy="1750" r="7" r1="11" r2="4" stroke-width="7" stroke="#ff9900" fill="#ffffff" opacity="1" layer="MULTILAYER" />
    <circle net="0" cx="1485" cy="1785" r="7" r1="11" r2="4" stroke-width="7" stroke="#ff9900" fill="#ffffff" opacity="1" layer="MULTILAYER" />
    <circle net="0" cx="1485" cy="1850" r="7" r1="11" r2="4" stroke-width="7" stroke="#ff9900" fill="#ffffff" opacity="1" layer="MULTILAYER" />
    <circle net="0" cx="1485" cy="1900" r="7" r1="11" r2="4" stroke-width="7" stroke="#ff9900" fill="#ffffff" opacity="1" layer="MULTILAYER" />
    <circle net="0" cx="1485" cy="1950" r="7" r1="11" r2="4" stroke-width="7" stroke="#ff9900" fill="#ffffff" opacity="1" layer="MULTILAYER" />
    <circle net="0" cx="1485" cy="2000" r="7" r1="11" r2="4" stroke-width="7" stroke="#ff9900" fill="#ffffff" opacity="1" layer="MULTILAYER" />
    <circle net="0" cx="1485" cy="2050" r="7" r1="11" r2="4" stroke-width="7" stroke="#ff9900" fill="#ffffff" opacity="1" layer="MULTILAYER" />
    <circle net="0" cx="1485" cy="2100" r="7" r1="11" r2="4" stroke-width="7" stroke="#ff9900" fill="#ffffff" opacity="1" layer="MULTILAYER" />
    <circle net="0" cx="1485" cy="2150" r="7" r1="11" r2="4" stroke-width="7" stroke="#ff9900" fill="#ffffff" opacity="1" layer="MULTILAYER" />
    <circle net="0" cx="1485" cy="2200" r="7" r1="11" r2="4" stroke-width="7" stroke="#ff9900" fill="#ffffff" opacity="1" layer="MULTILAYER" />
    <circle net="0" cx="1485" cy="2250" r="7" r1="11" r2="4" stroke-width="7" stroke="#ff9900" fill="#ffffff" opacity="1" layer="MULTILAYER" />
    <circle net="0" cx="1485" cy="2300" r="7" r1="11" r2="4" stroke-width="7" stroke="#ff9900" fill="#ffffff" opacity="1" layer="MULTILAYER" />
    <circle net="0" cx="1485" cy="2350" r="7" r1="11" r2="4" stroke-width="7" stroke="#ff9900" fill="#ffffff" opacity="1" layer="MULTILAYER" />
    <circle net="0" cx="1485" cy="2400" r="7" r1="11" r2="4" stroke-width="7" stroke="#ff9900" fill="#ffffff" opacity="1" layer="MULTILAYER" />
    <circle net="0" cx="1485" cy="2450" r="7" r1="11" r2="4" stroke-width="7" stroke="#ff9900" fill="#ffffff" opacity="1" layer="MULTILAYER" />
    <circle net="0" cx="1485" cy="2500" r="7" r1="11" r2="4" stroke-width="7" stroke="#ff9900" fill="#ffffff" opacity="1" layer="MULTILAYER" />
    <circle net="0" cx="1485" cy="2550" r="7" r1="11" r2="4" stroke-width="7" stroke="#ff9900" fill="#ffffff" opacity="1" layer="MULTILAYER" />
    <circle net="0" cx="1485" cy="2600" r="7" r1="11" r2="4" stroke-width="7" stroke="#ff9900" fill="#ffffff" opacity="1" layer="MULTILAYER" />
    <circle net="0" cx="1485" cy="2650" r="7" r1="11" r2="4" stroke-width="7" stroke="#ff9900" fill="#ffffff" opacity="1" layer="MULTILAYER" />
    <circle net="0" cx="1485" cy="2700" r="7" r1="11" r2="4" stroke-width="7" stroke="#ff9900" fill="#ffffff" opacity="1" layer="MULTILAYER" />
    <circle net="0" cx="1485" cy="2750" r="7" r1="11" r2="4" stroke-width="7" stroke="#ff9900" fill="#ffffff" opacity="1" layer="MULTILAYER" />
    <circle net="0" cx="1485" cy="2800" r="7" r1="11" r2="4" stroke-width="7" stroke="#ff9900" fill="#ffffff" opacity="1" layer="MULTILAYER" />
    <circle net="0" cx="1485" cy="3000" r="7" r1="11" r2="4" stroke-width="7" stroke="#ff9900" fill="#ffffff" opacity="1" layer="MULTILAYER" />
    <circle net="0" cx="1485" cy="2950" r="7" r1="11" r2="4" stroke-width="7" stroke="#ff9900" fill="#ffffff" opacity="1" layer="MULTILAYER" />
    <circle net="0" cx="1485" cy="2900" r="7" r1="11" r2="4" stroke-width="7" stroke="#ff9900" fill="#ffffff" opacity="1" layer="MULTILAYER" />
    <circle net="0" cx="1485" cy="2850" r="7" r1="11" r2="4" stroke-width="7" stroke="#ff9900" fill="#ffffff" opacity="1" layer="MULTILAYER" />
    <circle net="7" cx="1450" cy="1465" r="7" r1="11" r2="4" stroke-width="7" stroke="#ff9900" fill="#ffffff" opacity="1" layer="MULTILAYER" />
    <circle net="1" cx="1375" cy="1515" r="7" r1="11" r2="4" stroke-width="7" stroke="#ff9900" fill="#ffffff" opacity="1" layer="MULTILAYER" />
    <circle net="10" cx="910" cy="1305" r="7" r1="11" r2="4" stroke-width="7" stroke="#ff9900" fill="#ffffff" opacity="1" layer="MULTILAYER" />
    <circle net="0" cx="1340" cy="1375" r="7" r1="11" r2="4" stroke-width="7" stroke="#ff9900" fill="#ffffff" opacity="1" layer="MULTILAYER" />
    <circle net="7" cx="1290" cy="1335" r="7" r1="11" r2="4" stroke-width="7" stroke="#ff9900" fill="#ffffff" opacity="1" layer="MULTILAYER" />
    <circle net="7" cx="1180" cy="1260" r="7" r1="11" r2="4" stroke-width="7" stroke="#ff9900" fill="#ffffff" opacity="1" layer="MULTILAYER" />
    <circle net="7" cx="1265" cy="1335" r="7" r1="11" r2="4" stroke-width="7" stroke="#ff9900" fill="#ffffff" opacity="1" layer="MULTILAYER" />
    <circle net="2" cx="1055" cy="1765" r="7" r1="11" r2="4" stroke-width="7" stroke="#ff9900" fill="#ffffff" opacity="1" layer="MULTILAYER" />
    <circle net="7" cx="1315" cy="1260" r="7" r1="11" r2="4" stroke-width="7" stroke="#ff9900" fill="#ffffff" opacity="1" layer="MULTILAYER" />
    <circle net="7" cx="1340" cy="1335" r="7" r1="11" r2="4" stroke-width="7" stroke="#ff9900" fill="#ffffff" opacity="1" layer="MULTILAYER" />
    <circle net="7" cx="1290" cy="1260" r="7" r1="11" r2="4" stroke-width="7" stroke="#ff9900" fill="#ffffff" opacity="1" layer="MULTILAYER" />
    <circle net="7" cx="1340" cy="1260" r="7" r1="11" r2="4" stroke-width="7" stroke="#ff9900" fill="#ffffff" opacity="1" layer="MULTILAYER" />
    <circle net="7" cx="1315" cy="1335" r="7" r1="11" r2="4" stroke-width="7" stroke="#ff9900" fill="#ffffff" opacity="1" layer="MULTILAYER" />
    <circle net="2" cx="1340" cy="1825" r="7" r1="11" r2="4" stroke-width="7" stroke="#ff9900" fill="#ffffff" opacity="1" layer="MULTILAYER" />
    <circle net="2" cx="1130" cy="1900" r="7" r1="11" r2="4" stroke-width="7" stroke="#ff9900" fill="#ffffff" opacity="1" layer="MULTILAYER" />
    <circle net="2" cx="1155" cy="1900" r="7" r1="11" r2="4" stroke-width="7" stroke="#ff9900" fill="#ffffff" opacity="1" layer="MULTILAYER" />
    <circle net="2" cx="1180" cy="1900" r="7" r1="11" r2="4" stroke-width="7" stroke="#ff9900" fill="#ffffff" opacity="1" layer="MULTILAYER" />
    <circle net="2" cx="1205" cy="1900" r="7" r1="11" r2="4" stroke-width="7" stroke="#ff9900" fill="#ffffff" opacity="1" layer="MULTILAYER" />
    <circle net="2" cx="1340" cy="1900" r="7" r1="11" r2="4" stroke-width="7" stroke="#ff9900" fill="#ffffff" opacity="1" layer="MULTILAYER" />
    <circle net="2" cx="1155" cy="1825" r="7" r1="11" r2="4" stroke-width="7" stroke="#ff9900" fill="#ffffff" opacity="1" layer="MULTILAYER" />
    <circle net="2" cx="1180" cy="1825" r="7" r1="11" r2="4" stroke-width="7" stroke="#ff9900" fill="#ffffff" opacity="1" layer="MULTILAYER" />
    <circle net="2" cx="1290" cy="1825" r="7" r1="11" r2="4" stroke-width="7" stroke="#ff9900" fill="#ffffff" opacity="1" layer="MULTILAYER" />
    <circle net="2" cx="1315" cy="1825" r="7" r1="11" r2="4" stroke-width="7" stroke="#ff9900" fill="#ffffff" opacity="1" layer="MULTILAYER" />
    <circle net="2" cx="1130" cy="1825" r="7" r1="11" r2="4" stroke-width="7" stroke="#ff9900" fill="#ffffff" opacity="1" layer="MULTILAYER" />
    <circle net="2" cx="1205" cy="1825" r="7" r1="11" r2="4" stroke-width="7" stroke="#ff9900" fill="#ffffff" opacity="1" layer="MULTILAYER" />
    <circle net="0" cx="945" cy="1785" r="7" r1="11" r2="4" stroke-width="7" stroke="#ff9900" fill="#ffffff" opacity="1" layer="MULTILAYER" />
    <circle net="15" cx="1115" cy="1636" r="7" r1="11" r2="4" stroke-width="7" stroke="#ff9900" fill="#ffffff" opacity="1" layer="MULTILAYER" />
    <circle net="10" cx="1375" cy="1636" r="7" r1="11" r2="4" stroke-width="7" stroke="#ff9900" fill="#ffffff" opacity="1" layer="MULTILAYER" />
    <circle net="2" cx="1265" cy="1900" r="7" r1="11" r2="4" stroke-width="7" stroke="#ff9900" fill="#ffffff" opacity="1" layer="MULTILAYER" />
    <circle net="2" cx="1290" cy="1900" r="7" r1="11" r2="4" stroke-width="7" stroke="#ff9900" fill="#ffffff" opacity="1" layer="MULTILAYER" />
    <circle net="2" cx="1315" cy="1900" r="7" r1="11" r2="4" stroke-width="7" stroke="#ff9900" fill="#ffffff" opacity="1" layer="MULTILAYER" />
    <circle net="14" cx="1065" cy="1545" r="7" r1="11" r2="4" stroke-width="7" stroke="#ff9900" fill="#ffffff" opacity="1" layer="MULTILAYER" />
    <circle net="0" cx="1197" cy="1552" r="6" r1="9" r2="3" stroke-width="5" stroke="#ff9900" fill="#ffffff" opacity="1" layer="MULTILAYER" />
    <circle net="0" cx="1276" cy="1552" r="6" r1="9" r2="3" stroke-width="5" stroke="#ff9900" fill="#ffffff" opacity="1" layer="MULTILAYER" />
    <circle net="0" cx="1237" cy="1552" r="6" r1="9" r2="3" stroke-width="5" stroke="#ff9900" fill="#ffffff" opacity="1" layer="MULTILAYER" />
    <circle net="0" cx="1197" cy="1627" r="6" r1="9" r2="3" stroke-width="5" stroke="#ff9900" fill="#ffffff" opacity="1" layer="MULTILAYER" />
    <circle net="0" cx="1276" cy="1627" r="6" r1="9" r2="3" stroke-width="5" stroke="#ff9900" fill="#ffffff" opacity="1" layer="MULTILAYER" />
    <circle net="0" cx="1237" cy="1627" r="6" r1="9" r2="3" stroke-width="5" stroke="#ff9900" fill="#ffffff" opacity="1" layer="MULTILAYER" />
    <circle net="0" cx="1237" cy="1590" r="6" r1="9" r2="3" stroke-width="5" stroke="#ff9900" fill="#ffffff" opacity="1" layer="MULTILAYER" />
    <circle net="0" cx="1276" cy="1590" r="6" r1="9" r2="3" stroke-width="5" stroke="#ff9900" fill="#ffffff" opacity="1" layer="MULTILAYER" />
    <circle net="0" cx="1197" cy="1590" r="6" r1="9" r2="3" stroke-width="5" stroke="#ff9900" fill="#ffffff" opacity="1" layer="MULTILAYER" />
    <circle net="7" cx="1265" cy="1260" r="7" r1="11" r2="4" stroke-width="7" stroke="#ff9900" fill="#ffffff" opacity="1" layer="MULTILAYER" />
    <circle net="7" cx="1155" cy="1260" r="7" r1="11" r2="4" stroke-width="7" stroke="#ff9900" fill="#ffffff" opacity="1" layer="MULTILAYER" />
    <circle net="7" cx="1205" cy="1260" r="7" r1="11" r2="4" stroke-width="7" stroke="#ff9900" fill="#ffffff" opacity="1" layer="MULTILAYER" />
    <circle net="7" cx="1130" cy="1335" r="7" r1="11" r2="4" stroke-width="7" stroke="#ff9900" fill="#ffffff" opacity="1" layer="MULTILAYER" />
    <circle net="7" cx="1130" cy="1260" r="7" r1="11" r2="4" stroke-width="7" stroke="#ff9900" fill="#ffffff" opacity="1" layer="MULTILAYER" />
    <circle net="7" cx="1155" cy="1335" r="7" r1="11" r2="4" stroke-width="7" stroke="#ff9900" fill="#ffffff" opacity="1" layer="MULTILAYER" />
    <circle net="7" cx="1180" cy="1335" r="7" r1="11" r2="4" stroke-width="7" stroke="#ff9900" fill="#ffffff" opacity="1" layer="MULTILAYER" />
    <circle net="7" cx="1205" cy="1335" r="7" r1="11" r2="4" stroke-width="7" stroke="#ff9900" fill="#ffffff" opacity="1" layer="MULTILAYER" />
    <circle net="2" cx="1265" cy="1825" r="7" r1="11" r2="4" stroke-width="7" stroke="#ff9900" fill="#ffffff" opacity="1" layer="MULTILAYER" />
    <circle net="0" cx="1130" cy="1375" r="7" r1="11" r2="4" stroke-width="7" stroke="#ff9900" fill="#ffffff" opacity="1" layer="MULTILAYER" />
    <circle net="0" cx="1265" cy="1375" r="7" r1="11" r2="4" stroke-width="7" stroke="#ff9900" fill="#ffffff" opacity="1" layer="MULTILAYER" />
    <circle net="0" cx="1205" cy="1375" r="7" r1="11" r2="4" stroke-width="7" stroke="#ff9900" fill="#ffffff" opacity="1" layer="MULTILAYER" />
    <circle net="0" cx="750" cy="1250" r="7" r1="11" r2="4" stroke-width="7" stroke="#ff9900" fill="#ffffff" opacity="1" layer="MULTILAYER" />
    <circle net="0" cx="1205" cy="1790" r="7" r1="11" r2="4" stroke-width="7" stroke="#ff9900" fill="#ffffff" opacity="1" layer="MULTILAYER" />
    <circle net="0" cx="1265" cy="1790" r="7" r1="11" r2="4" stroke-width="7" stroke="#ff9900" fill="#ffffff" opacity="1" layer="MULTILAYER" />
    <circle net="0" cx="1130" cy="1790" r="7" r1="11" r2="4" stroke-width="7" stroke="#ff9900" fill="#ffffff" opacity="1" layer="MULTILAYER" />
    <circle net="0" cx="1340" cy="1790" r="7" r1="11" r2="4" stroke-width="7" stroke="#ff9900" fill="#ffffff" opacity="1" layer="MULTILAYER" />
    <circle net="15" cx="800" cy="1635" r="58.8" r1="68" r2="49" stroke-width="19" stroke="#ff9900" fill="#ffffff" opacity="1" layer="MULTILAYER" />
    <circle net="0" cx="1625" cy="305" r="58.8" r1="68" r2="49" stroke-width="19" stroke="#ff9900" fill="#ffffff" opacity="1" layer="MULTILAYER" />
    <circle net="7" cx="1360" cy="305" r="58.8" r1="68" r2="49" stroke-width="19" stroke="#ff9900" fill="#ffffff" opacity="1" layer="MULTILAYER" />
    <circle net="2" cx="1335" cy="2930" r="58.8" r1="68" r2="49" stroke-width="19" stroke="#ff9900" fill="#ffffff" opacity="1" layer="MULTILAYER" />
    <circle net="0" cx="1625" cy="2930" r="58.8" r1="68" r2="49" stroke-width="19" stroke="#ff9900" fill="#ffffff" opacity="1" layer="MULTILAYER" />
  </g>
</svg>

